<svg width="474" height="471" viewBox="0 0 474 471" fill="none" xmlns="http://www.w3.org/2000/svg">
<g opacity="0.8" clip-path="url(#clip0)" filter="url(#filter0_d)">
<path d="M138.347 377.268L118.592 368.057C113.136 365.513 110.777 359.029 113.321 353.573C115.865 348.118 122.348 345.758 127.804 348.302L147.559 357.514C164.139 365.245 182.669 363.887 197.491 355.492C189.795 355.429 182.131 353.712 174.944 350.361C161.754 344.21 151.746 333.29 146.769 319.611C143.782 311.404 137.778 304.852 129.863 301.162L106.718 290.369C101.262 287.825 98.9026 281.342 101.447 275.886C103.991 270.43 110.474 268.07 115.93 270.614L139.075 281.407C152.265 287.558 162.273 298.478 167.25 312.157C173.417 329.097 192.215 337.862 209.156 331.698L226.125 325.522C230.267 324.012 234.908 325.149 237.889 328.399C240.866 331.651 241.592 336.373 239.729 340.368C221.951 378.494 176.472 395.047 138.347 377.268Z" fill="#596C76"/>
<path d="M213.262 371.339C224.378 363.861 233.666 353.371 239.729 340.368C241.592 336.374 240.864 331.65 237.886 328.398C236.901 327.322 235.729 326.484 234.456 325.89L213.262 371.339Z" fill="#465A61"/>
<path fill-rule="evenodd" clip-rule="evenodd" d="M388.185 270.368C361.149 328.393 291.798 354.196 233.773 327.16C175.748 300.123 151.021 230.485 178.058 172.46C205.094 114.435 274.05 89.3135 332.075 116.35C390.1 143.387 415.222 212.343 388.185 270.368ZM242.654 308.389C290.299 330.589 347.244 309.401 369.444 261.756C391.644 214.11 371.017 157.489 323.371 135.289C275.726 113.089 219.105 133.717 196.905 181.362C174.705 229.007 195.008 286.189 242.654 308.389Z" fill="#596C76"/>
<path fill-rule="evenodd" clip-rule="evenodd" d="M388.185 270.368C361.149 328.393 291.798 354.196 233.773 327.16C175.748 300.123 151.021 230.485 178.058 172.46C205.094 114.435 274.05 89.3135 332.075 116.35C390.1 143.387 415.222 212.343 388.185 270.368ZM242.654 308.389C290.299 330.589 347.244 309.401 369.444 261.756C391.644 214.11 371.017 157.489 323.371 135.289C275.726 113.089 219.105 133.717 196.905 181.362C174.705 229.007 195.008 286.189 242.654 308.389Z" fill="#596C76"/>
<path d="M225.246 345.639C208.907 338.02 201.813 318.528 209.432 302.19C217.051 285.851 236.543 278.756 252.881 286.375C269.22 293.994 276.315 313.486 268.696 329.825C261.077 346.164 241.585 353.258 225.246 345.639Z" fill="#FF637B"/>
<path d="M268.696 329.825C276.315 313.486 269.22 293.994 252.881 286.375L225.246 345.64C241.585 353.258 261.077 346.164 268.696 329.825Z" fill="#E63950"/>
</g>
<defs>
<filter id="filter0_d" x="-3.27032" y="0" width="502.36" height="502.36" filterUnits="userSpaceOnUse" color-interpolation-filters="sRGB">
<feFlood flood-opacity="0" result="BackgroundImageFix"/>
<feColorMatrix in="SourceAlpha" type="matrix" values="0 0 0 0 0 0 0 0 0 0 0 0 0 0 0 0 0 0 127 0"/>
<feOffset dy="4"/>
<feGaussianBlur stdDeviation="2"/>
<feColorMatrix type="matrix" values="0 0 0 0 0 0 0 0 0 0 0 0 0 0 0 0 0 0 0.25 0"/>
<feBlend mode="normal" in2="BackgroundImageFix" result="effect1_dropShadow"/>
<feBlend mode="normal" in="SourceGraphic" in2="effect1_dropShadow" result="shape"/>
</filter>
<clipPath id="clip0">
<rect width="372" height="372" fill="white" transform="translate(157.944) rotate(25)"/>
</clipPath>
</defs>
</svg>
