<svg width="55" height="59" viewBox="0 0 55 59" fill="none" xmlns="http://www.w3.org/2000/svg">
<g clip-path="url(#clip0)">
<path d="M45.9005 8.88371H38.8003C33.2735 8.88371 28.7771 13.7049 28.7771 19.6309V26.0561H23.1584C22.5763 26.0561 22.1037 26.5624 22.1037 27.187V35.8876C22.1037 36.5122 22.5763 37.0185 23.1584 37.0185H28.7771V55.9932H4.07391C3.49219 55.9932 3.01923 55.4861 3.01923 54.8623V3.7471C3.01923 3.12335 3.49219 2.61623 4.07391 2.61623H6.18329C6.76584 2.61623 7.23798 2.10999 7.23798 1.48536C7.23798 0.860732 6.76584 0.354492 6.18329 0.354492H4.07391C2.32915 0.354492 0.909851 1.87631 0.909851 3.7471V54.8623C0.909851 56.7331 2.32915 58.255 4.07391 58.255H29.8318C30.4143 58.255 30.8865 57.7487 30.8865 57.1241V35.8876C30.8865 35.263 30.4143 34.7567 29.8318 34.7567H24.2135V28.3174H29.8318C30.4143 28.3174 30.8865 27.8112 30.8865 27.1866V19.6309C30.8865 14.952 34.4366 11.145 38.8007 11.145H44.8462V17.5839H38.8007C37.7658 17.5839 36.8916 18.5213 36.8916 19.6309V27.1866C36.8916 27.8112 37.3637 28.3174 37.9463 28.3174H44.6983L43.9081 34.7567H37.9463C37.3641 34.7567 36.8916 35.263 36.8916 35.8876V57.1241C36.8916 57.7487 37.3641 58.255 37.9463 58.255H41.1989C41.7815 58.255 42.2536 57.7487 42.2536 57.1241C42.2536 56.4995 41.7815 55.9932 41.1989 55.9932H39.001V37.0185H44.8331C45.3625 37.0185 45.8099 36.5975 45.8787 36.0352L46.9465 27.3341C46.9861 27.0116 46.8942 26.6861 46.694 26.4413C46.4938 26.1962 46.2046 26.0561 45.9009 26.0561H39.0014V19.8461H45.9009C46.4835 19.8461 46.9556 19.3398 46.9556 18.7152V10.0146C46.9552 9.38995 46.4831 8.88371 45.9005 8.88371Z" fill="#2341A0"/>
<path d="M51.7458 0.354492H14.6208C14.0382 0.354492 13.5661 0.860732 13.5661 1.48536C13.5661 2.10999 14.0382 2.61623 14.6208 2.61623H51.7458C52.3275 2.61623 52.8005 3.12335 52.8005 3.7471V54.8623C52.8005 55.4861 52.3275 55.9932 51.7458 55.9932H49.6364C49.0539 55.9932 48.5817 56.4995 48.5817 57.1241C48.5817 57.7487 49.0539 58.255 49.6364 58.255H51.7458C53.4906 58.255 54.9099 56.7331 54.9099 54.8623V3.7471C54.9099 1.87631 53.4906 0.354492 51.7458 0.354492Z" fill="#2341A0"/>
<path d="M45.4181 55.9932H45.4173C44.8347 55.9932 44.363 56.4994 44.363 57.124C44.363 57.7487 44.8355 58.2549 45.4181 58.2549C46.0006 58.2549 46.4728 57.7487 46.4728 57.124C46.4728 56.4994 46.0006 55.9932 45.4181 55.9932Z" fill="#2341A0"/>
<path d="M10.4025 2.61623C10.985 2.61623 11.4571 2.10999 11.4571 1.48536C11.4571 0.860732 10.985 0.354492 10.4025 0.354492H10.4016C9.81908 0.354492 9.34735 0.860732 9.34735 1.48536C9.34735 2.10999 9.8199 2.61623 10.4025 2.61623Z" fill="#2341A0"/>
</g>
<defs>
<clipPath id="clip0">
<rect width="54" height="57.9005" fill="white" transform="translate(0.909851 0.354492)"/>
</clipPath>
</defs>
</svg>
