<svg width="60" height="60" viewBox="0 0 60 60" fill="none" xmlns="http://www.w3.org/2000/svg">
<path d="M26.2182 42H31.3186C31.7562 42 32.111 41.6744 32.111 41.2727V30.7357H34.7608C35.167 30.7357 35.5075 30.4538 35.5491 30.083L35.9958 26.1037C36.0188 25.899 35.9462 25.6948 35.7958 25.542C35.6456 25.3891 35.4318 25.3019 35.2076 25.3019H32.111V23.6901C32.111 23.3572 32.2258 23.3323 32.401 23.3323H35.1431C35.5807 23.3323 35.9355 23.0066 35.9355 22.605V18.7414C35.9355 18.3408 35.5827 18.0157 35.1462 18.0141L31.3646 18C28.7147 18 27.3005 19.07 26.5808 19.9675C25.5758 21.2209 25.4257 22.6895 25.4257 23.4533V25.3018H23.7924C23.3548 25.3018 23 25.6275 23 26.0291V30.0084C23 30.41 23.3548 30.7356 23.7924 30.7356H25.4257V41.2727C25.4257 41.6744 25.7805 42 26.2182 42ZM24.5848 29.2812V26.7565H26.2181C26.6557 26.7565 27.0105 26.4308 27.0105 26.0292V23.4534C27.0105 22.982 27.093 21.7828 27.8571 20.8297C28.5887 19.9173 29.7689 19.4546 31.3613 19.4546L34.3504 19.4657V21.8778H32.4008C31.4677 21.8778 30.5259 22.4382 30.5259 23.6902V26.0293C30.5259 26.4309 30.8808 26.7565 31.3184 26.7565H34.3291L34.0456 29.2813H31.3184C30.8808 29.2813 30.5259 29.6069 30.5259 30.0085V40.5455H27.0104V30.0085C27.0104 29.6068 26.6556 29.2812 26.218 29.2812H24.5848Z" fill="#C35E5E"/>
<path d="M24.5848 29.2812V26.7565H26.2181C26.6557 26.7565 27.0105 26.4308 27.0105 26.0292V23.4534C27.0105 22.982 27.093 21.7828 27.8571 20.8297C28.5887 19.9173 29.7689 19.4546 31.3613 19.4546L34.3504 19.4657V21.8778H32.4008C31.4677 21.8778 30.5259 22.4382 30.5259 23.6902V26.0293C30.5259 26.4309 30.8808 26.7565 31.3184 26.7565H34.3291L34.0456 29.2813H31.3184C30.8808 29.2813 30.5259 29.6069 30.5259 30.0085V40.5455H27.0104V30.0085C27.0104 29.6068 26.6556 29.2812 26.218 29.2812H24.5848Z" fill="#C35E5E"/>
</svg>
