<svg width="36" height="39" viewBox="0 0 36 39" fill="none" xmlns="http://www.w3.org/2000/svg">
<g clip-path="url(#clip0)">
<path d="M29.9938 5.74503H25.2603C21.5758 5.74503 18.5782 8.99245 18.5782 12.984V17.3118H14.8324C14.4443 17.3118 14.1292 17.6528 14.1292 18.0736V23.934C14.1292 24.3548 14.4443 24.6958 14.8324 24.6958H18.5782V37.4766H2.10938C1.72156 37.4766 1.40625 37.135 1.40625 36.7148V2.28516C1.40625 1.86502 1.72156 1.52344 2.10938 1.52344H3.51562C3.90399 1.52344 4.21875 1.18245 4.21875 0.761719C4.21875 0.340988 3.90399 0 3.51562 0H2.10938C0.946198 0 0 1.02505 0 2.28516V36.7148C0 37.975 0.946198 39 2.10938 39H19.2813C19.6696 39 19.9844 38.659 19.9844 38.2383V23.934C19.9844 23.5133 19.6696 23.1723 19.2813 23.1723H15.5358V18.835H19.2813C19.6696 18.835 19.9844 18.494 19.9844 18.0733V12.984C19.9844 9.83242 22.3511 7.26817 25.2606 7.26817H29.2909V11.6052H25.2606C24.5706 11.6052 23.9878 12.2366 23.9878 12.984V18.0733C23.9878 18.494 24.3026 18.835 24.6909 18.835H29.1923L28.6655 23.1723H24.6909C24.3029 23.1723 23.9878 23.5133 23.9878 23.934V38.2383C23.9878 38.659 24.3029 39 24.6909 39H26.8594C27.2477 39 27.5625 38.659 27.5625 38.2383C27.5625 37.8176 27.2477 37.4766 26.8594 37.4766H25.3941V24.6958H29.2821C29.6351 24.6958 29.9333 24.4122 29.9792 24.0334L30.6911 18.1726C30.7175 17.9554 30.6563 17.7361 30.5228 17.5713C30.3893 17.4062 30.1965 17.3118 29.994 17.3118H25.3943V13.1289H29.994C30.3824 13.1289 30.6972 12.7879 30.6972 12.3672V6.50674C30.6969 6.08601 30.3821 5.74503 29.9938 5.74503Z" fill="#747477"/>
<path d="M33.8906 0H9.14062C8.75226 0 8.4375 0.340988 8.4375 0.761719C8.4375 1.18245 8.75226 1.52344 9.14062 1.52344H33.8906C34.2784 1.52344 34.5938 1.86502 34.5938 2.28516V36.7148C34.5938 37.135 34.2784 37.4766 33.8906 37.4766H32.4844C32.096 37.4766 31.7812 37.8176 31.7812 38.2383C31.7812 38.659 32.096 39 32.4844 39H33.8906C35.0538 39 36 37.975 36 36.7148V2.28516C36 1.02505 35.0538 0 33.8906 0Z" fill="#747477"/>
<path d="M29.6721 37.4766H29.6716C29.2832 37.4766 28.9688 37.8176 28.9688 38.2383C28.9688 38.659 29.2838 39 29.6721 39C30.0605 39 30.3753 38.659 30.3753 38.2383C30.3753 37.8176 30.0605 37.4766 29.6721 37.4766V37.4766Z" fill="white"/>
<path d="M6.3284 1.52344C6.71677 1.52344 7.03152 1.18245 7.03152 0.761719C7.03152 0.340988 6.71677 0 6.3284 0H6.32785C5.93948 0 5.625 0.340988 5.625 0.761719C5.625 1.18245 5.94003 1.52344 6.3284 1.52344Z" fill="white"/>
</g>
<defs>
<clipPath id="clip0">
<rect width="36" height="39" fill="white"/>
</clipPath>
</defs>
</svg>
