<svg width="60" height="60" viewBox="0 0 60 60" fill="none" xmlns="http://www.w3.org/2000/svg">
<circle cx="30" cy="30" r="30" fill="#C45E5E"/>
<path d="M35.7301 19H24.2698C21.364 19 19 21.3641 19 24.2699V35.7301C19 38.636 21.364 41 24.2698 41H35.7301C38.6359 41 40.9998 38.636 40.9998 35.7301V24.2699C40.9998 21.3641 38.6359 19 35.7301 19ZM39.6124 35.73C39.6124 37.8707 37.8708 39.6124 35.7301 39.6124H24.2698C22.1293 39.6124 20.3879 37.8707 20.3879 35.73V24.2699C20.3879 22.1294 22.1294 20.388 24.2698 20.388H35.7301C37.8708 20.388 39.6124 22.1295 39.6124 24.2699V35.73Z" fill="white"/>
<path d="M39.6124 35.73C39.6124 37.8707 37.8708 39.6124 35.7301 39.6124H24.2698C22.1293 39.6124 20.3879 37.8707 20.3879 35.73V24.2699C20.3879 22.1294 22.1294 20.388 24.2698 20.388H35.7301C37.8708 20.388 39.6124 22.1295 39.6124 24.2699V35.73Z" fill="white"/>
<path d="M36.1485 23.0207C35.6826 23.0207 35.3034 23.3998 35.3034 23.8655C35.3034 24.3313 35.6826 24.7103 36.1485 24.7103C36.6143 24.7103 36.9933 24.3313 36.9933 23.8655C36.9933 23.3998 36.6143 23.0207 36.1485 23.0207Z" fill="#C45E5E"/>
<path d="M30.1794 25.7597C27.7424 25.7597 25.7597 27.7424 25.7597 30.1794C25.7597 32.6166 27.7424 34.5995 30.1794 34.5995C32.6166 34.5995 34.5995 32.6166 34.5995 30.1794C34.5995 27.7424 32.6166 25.7597 30.1794 25.7597ZM30.1794 33.4622C28.3694 33.4622 26.8969 31.9895 26.8969 30.1794C26.8969 28.3697 28.3694 26.8975 30.1794 26.8975C31.9892 26.8975 33.4616 28.3697 33.4616 30.1794C33.4617 31.9895 31.9892 33.4622 30.1794 33.4622Z" fill="#C45E5E"/>
<path d="M30.1794 33.4622C28.3694 33.4622 26.8969 31.9895 26.8969 30.1794C26.8969 28.3697 28.3694 26.8975 30.1794 26.8975C31.9892 26.8975 33.4616 28.3697 33.4616 30.1794C33.4617 31.9895 31.9892 33.4622 30.1794 33.4622Z" fill="#C45E5E"/>
<path d="M30.1793 22.9471C26.1914 22.9471 22.947 26.1915 22.947 30.1793C22.947 34.1674 26.1914 37.4121 30.1793 37.4121C34.1674 37.4121 37.4121 34.1674 37.4121 30.1793C37.4121 26.1915 34.1674 22.9471 30.1793 22.9471ZM30.1793 35.5511C27.2174 35.5511 24.8079 33.1413 24.8079 30.1793C24.8079 27.218 27.2174 24.8089 30.1793 24.8089C33.1408 24.8089 35.5501 27.218 35.5501 30.1793C35.5502 33.1413 33.1408 35.5511 30.1793 35.5511Z" fill="#C45E5E"/>
</svg>
