<svg width="38" height="41" viewBox="0 0 38 41" fill="none" xmlns="http://www.w3.org/2000/svg">
<g clip-path="url(#clip0)">
<path d="M26.8672 0.360352H11.1328C4.99418 0.360352 0 5.61738 0 12.0791V28.6416C0 35.1033 4.99418 40.3604 11.1328 40.3604H26.8672C33.0058 40.3604 38 35.1033 38 28.6416V12.0791C38 5.61738 33.0058 0.360352 26.8672 0.360352ZM36.5156 28.6416C36.5156 34.2418 32.1873 38.7979 26.8672 38.7979H11.1328C5.81266 38.7979 1.48438 34.2418 1.48438 28.6416V12.0791C1.48438 6.47895 5.81266 1.92285 11.1328 1.92285H26.8672C32.1873 1.92285 36.5156 6.47895 36.5156 12.0791V28.6416Z" fill="#8D8D8D"/>
<path d="M26.8672 3.79785H11.1328C6.7948 3.79785 3.26562 7.51277 3.26562 12.0791V28.6416C3.26562 33.2079 6.7948 36.9229 11.1328 36.9229H15.6602C16.0701 36.9229 16.4023 36.5731 16.4023 36.1416C16.4023 35.7101 16.0701 35.3604 15.6602 35.3604H11.1328C7.61336 35.3604 4.75 32.3463 4.75 28.6416V12.0791C4.75 8.37441 7.61336 5.36035 11.1328 5.36035H26.8672C30.3866 5.36035 33.25 8.37441 33.25 12.0791V28.6416C33.25 32.3463 30.3866 35.3604 26.8672 35.3604H22.3893C21.9794 35.3604 21.6472 35.7101 21.6472 36.1416C21.6472 36.5731 21.9794 36.9229 22.3893 36.9229H26.8672C31.2052 36.9229 34.7344 33.2079 34.7344 28.6416V12.0791C34.7344 7.51277 31.2052 3.79785 26.8672 3.79785Z" fill="#737477"/>
<path d="M19.5247 35.5893C19.3867 35.4439 19.1952 35.3604 19 35.3604C18.8048 35.3604 18.6133 35.4439 18.4753 35.5893C18.3372 35.7346 18.2578 35.9361 18.2578 36.1416C18.2578 36.3471 18.3372 36.5486 18.4753 36.6939C18.6133 36.8393 18.8048 36.9229 19 36.9229C19.1952 36.9229 19.3867 36.8393 19.5247 36.6939C19.6628 36.5486 19.7422 36.3471 19.7422 36.1416C19.7422 35.9361 19.6628 35.7346 19.5247 35.5893Z" fill="black"/>
<path d="M13.0499 12.5249C12.7696 12.2101 12.3 12.194 12.0008 12.4889L11.9679 12.5215C11.6698 12.8176 11.6562 13.312 11.9375 13.6259C12.0835 13.7887 12.2803 13.8709 12.4775 13.8709C12.6602 13.8709 12.8433 13.8003 12.9867 13.6579L13.0157 13.6292C13.3148 13.3342 13.3302 12.8398 13.0499 12.5249Z" fill="black"/>
<path d="M19 9.5791C17.3699 9.5791 15.7474 9.99246 14.3081 10.7745C13.9439 10.9724 13.8011 11.4436 13.989 11.8271C14.1771 12.2104 14.6248 12.3607 14.989 12.1629C16.2362 11.4852 17.5858 11.1416 19 11.1416C23.829 11.1416 27.7578 15.2771 27.7578 20.3604C27.7578 25.4436 23.829 29.5791 19 29.5791C14.171 29.5791 10.2422 25.4436 10.2422 20.3604C10.2422 18.7651 10.6352 17.1934 11.3787 15.8152C11.5811 15.44 11.4563 14.9632 11.0998 14.75C10.7433 14.5371 10.2904 14.6684 10.0879 15.0436C9.21775 16.6566 8.75781 18.4951 8.75781 20.3604C8.75781 26.3051 13.3525 31.1416 19 31.1416C24.6475 31.1416 29.2422 26.3051 29.2422 20.3604C29.2422 14.4156 24.6475 9.5791 19 9.5791Z" fill="black"/>
<path d="M19 13.3291C15.3168 13.3291 12.3203 16.4833 12.3203 20.3604C12.3203 24.2374 15.3168 27.3916 19 27.3916C22.6832 27.3916 25.6797 24.2374 25.6797 20.3604C25.6797 16.4833 22.6832 13.3291 19 13.3291ZM19 25.8291C16.1353 25.8291 13.8047 23.3758 13.8047 20.3604C13.8047 17.3449 16.1353 14.8916 19 14.8916C21.8647 14.8916 24.1953 17.3449 24.1953 20.3604C24.1953 23.3758 21.8647 25.8291 19 25.8291Z" fill="white"/>
<path d="M28.7412 7.1377C27.1861 7.1377 25.9209 8.46949 25.9209 10.1064C25.9209 11.7434 27.1861 13.0752 28.7412 13.0752C30.2963 13.0752 31.5615 11.7434 31.5615 10.1064C31.5615 8.46949 30.2963 7.1377 28.7412 7.1377ZM28.7412 11.5127C28.0046 11.5127 27.4053 10.8818 27.4053 10.1064C27.4053 9.33105 28.0046 8.7002 28.7412 8.7002C29.4778 8.7002 30.0771 9.33105 30.0771 10.1064C30.0771 10.8818 29.4778 11.5127 28.7412 11.5127Z" fill="black"/>
</g>
<defs>
<clipPath id="clip0">
<rect width="38" height="40" fill="white" transform="translate(0 0.360352)"/>
</clipPath>
</defs>
</svg>
