<svg width="60" height="64" viewBox="0 0 60 64" fill="none" xmlns="http://www.w3.org/2000/svg">
<g clip-path="url(#clip0)">
<path d="M42.6247 0.354492H18.195C8.66397 0.354492 0.909851 8.6687 0.909851 18.8882V45.0824C0.909851 55.3019 8.66397 63.6161 18.195 63.6161H42.6247C52.1557 63.6161 59.9099 55.3019 59.9099 45.0824V18.8882C59.9099 8.6687 52.1557 0.354492 42.6247 0.354492ZM57.6052 45.0824C57.6052 53.9393 50.8849 61.145 42.6247 61.145H18.195C9.93478 61.145 3.21454 53.9393 3.21454 45.0824V18.8882C3.21454 10.0313 9.93478 2.82565 18.195 2.82565H42.6247C50.8849 2.82565 57.6052 10.0313 57.6052 18.8882V45.0824Z" fill="#D23393"/>
<path d="M42.6247 5.79102H18.195C11.4597 5.79102 5.98016 11.6663 5.98016 18.8881V45.0824C5.98016 52.3042 11.4597 58.1795 18.195 58.1795H25.2243C25.8607 58.1795 26.3766 57.6264 26.3766 56.944C26.3766 56.2616 25.8607 55.7084 25.2243 55.7084H18.195C12.7306 55.7084 8.28485 50.9415 8.28485 45.0824V18.8881C8.28485 13.029 12.7306 8.26217 18.195 8.26217H42.6247C48.0891 8.26217 52.5349 13.029 52.5349 18.8881V45.0824C52.5349 50.9415 48.0891 55.7084 42.6247 55.7084H35.6723C35.0358 55.7084 34.5199 56.2616 34.5199 56.944C34.5199 57.6264 35.0358 58.1795 35.6723 58.1795H42.6247C49.36 58.1795 54.8395 52.3042 54.8395 45.0824V18.8881C54.8395 11.6663 49.36 5.79102 42.6247 5.79102Z" fill="#FFC107"/>
<path d="M31.2246 56.0705C31.0102 55.8407 30.7129 55.7085 30.4099 55.7085C30.1068 55.7085 29.8095 55.8407 29.5951 56.0705C29.3808 56.3003 29.2575 56.6191 29.2575 56.9441C29.2575 57.269 29.3808 57.5878 29.5951 57.8176C29.8095 58.0474 30.1068 58.1797 30.4099 58.1797C30.7129 58.1797 31.0102 58.0474 31.2246 57.8176C31.4389 57.5878 31.5622 57.269 31.5622 56.9441C31.5622 56.6191 31.4389 56.3003 31.2246 56.0705Z" fill="black"/>
<path d="M21.1715 19.5934C20.7363 19.0955 20.0072 19.07 19.5427 19.5365L19.4916 19.588C19.0287 20.0563 19.0075 20.8383 19.4444 21.3346C19.6711 21.5922 19.9766 21.7222 20.2827 21.7222C20.5664 21.7222 20.8507 21.6105 21.0734 21.3853L21.1184 21.3399C21.5828 20.8734 21.6067 20.0914 21.1715 19.5934Z" fill="black"/>
<path d="M30.4099 14.9341C27.8788 14.9341 25.3598 15.5878 23.1251 16.8246C22.5596 17.1376 22.3378 17.8829 22.6297 18.4893C22.9217 19.0956 23.6168 19.3334 24.1822 19.0205C26.1188 17.9486 28.2141 17.4052 30.4099 17.4052C37.9076 17.4052 44.0075 23.9458 44.0075 31.9851C44.0075 40.0244 37.9076 46.5649 30.4099 46.5649C22.9121 46.5649 16.8122 40.0244 16.8122 31.9851C16.8122 29.4621 17.4224 26.9764 18.5768 24.7967C18.891 24.2034 18.6972 23.4492 18.1437 23.1121C17.5903 22.7753 16.887 22.983 16.5726 23.5765C15.2216 26.1274 14.5075 29.0351 14.5075 31.9851C14.5075 41.3869 21.6413 49.036 30.4099 49.036C39.1784 49.036 46.3122 41.3869 46.3122 31.9851C46.3122 22.5832 39.1784 14.9341 30.4099 14.9341Z" fill="black"/>
<path d="M30.4099 20.8652C24.6912 20.8652 20.0388 25.8538 20.0388 31.9854C20.0388 38.1171 24.6912 43.1056 30.4099 43.1056C36.1285 43.1056 40.7809 38.1171 40.7809 31.9854C40.7809 25.8538 36.1285 20.8652 30.4099 20.8652ZM30.4099 40.6345C25.962 40.6345 22.3434 36.7545 22.3434 31.9854C22.3434 27.2164 25.962 23.3364 30.4099 23.3364C34.8577 23.3364 38.4763 27.2164 38.4763 31.9854C38.4763 36.7545 34.8577 40.6345 30.4099 40.6345Z" fill="white"/>
<path d="M45.5344 11.0732C43.1199 11.0732 41.1555 13.1795 41.1555 15.7684C41.1555 18.3573 43.1199 20.4636 45.5344 20.4636C47.9489 20.4636 49.9133 18.3573 49.9133 15.7684C49.9133 13.1795 47.9489 11.0732 45.5344 11.0732ZM45.5344 17.9925C44.3907 17.9925 43.4601 16.9948 43.4601 15.7684C43.4601 14.5421 44.3907 13.5444 45.5344 13.5444C46.6781 13.5444 47.6086 14.5421 47.6086 15.7684C47.6086 16.9948 46.6781 17.9925 45.5344 17.9925Z" fill="black"/>
</g>
<defs>
<clipPath id="clip0">
<rect width="59" height="63.2616" fill="white" transform="translate(0.909851 0.354492)"/>
</clipPath>
</defs>
</svg>
