
        <svg xmlns="http://www.w3.org/2000/svg" xmlns:xlink="http://www.w3.org/1999/xlink" version="1.1" width="3171.4285714285716" 
        height="1020.5076819778794" viewBox="0 0 3171.4285714285716 1020.5076819778794">
			<rect fill="#ffffff" width="3171.4285714285716" height="1020.5076819778794"/>
			<g transform="scale(8.571428571428571) translate(10, 10)">
				<defs id="SvgjsDefs7790"><linearGradient id="SvgjsLinearGradient7795"><stop id="SvgjsStop7796" stop-color="#2d388a" offset="0"></stop><stop id="SvgjsStop7797" stop-color="#00aeef" offset="1"></stop></linearGradient></defs><g id="SvgjsG7791" featureKey="nameFeature-0" transform="matrix(2.1079260799610644,0,0,2.1079260799610644,4.300169122709573,-25.801026797907216)" fill="url(#SvgjsLinearGradient7795)"><path d="M6.96 37.2 c0.08 -0.52 0.4 -1.08 0.4 -1.6 c-0.76 0 -2.24 0.68 -3.08 0.92 c-1.04 0.24 -1.96 0.36 -2.96 0.36 c-1.36 0 -2.28 -0.44 -3.16 -1.36 c-0.08 -0.08 -0.2 -0.24 -0.2 -0.32 c0 -1.36 3.52 -1.68 5.24 -2.12 c1 -0.24 5 0.04 5.12 -0.84 c0.12 -1.12 0.64 -2.16 0.96 -3.24 c0.32 -1.2 1.16 -2.4 1.24 -3.6 c0.6 -1.12 0.84 -2.32 1.4 -3.44 c0.6 -1.12 0.72 -2.4 1.4 -3.48 c0.4 -0.6 0.32 -1.72 1.36 -1.72 c0.64 0 0.76 0.04 0.76 0.56 c0 0.2 0.2 0.4 0.2 0.68 c0 0.72 -0.56 1.72 -0.56 2.36 c0 0.04 0 0.12 0.04 0.2 c-0.32 1.28 -0.8 2.4 -1.32 3.6 c-0.08 0.08 -0.2 0.48 -0.2 0.56 c0 0.2 0.16 0.2 0.16 0.32 c0 0.24 -0.92 2.76 -1.08 3.04 c0 0.36 -1.04 3.64 -1.24 4.08 l0.08 0.12 c1.24 -0.52 2.2 -1.48 3.6 -2.24 c1.44 -0.76 2.72 -1.76 3.84 -2.8 c0.36 -0.12 0.92 -0.6 1.2 -0.84 l0.08 0.08 l-0.28 0.36 l0.12 0.04 c0.44 -0.68 1.24 -1.04 1.8 -1.64 c0 -0.04 -0.04 -0.04 -0.04 -0.08 c0 -0.44 0.76 -0.84 1 -1.24 c1.2 -1.08 2.16 -2.08 3.12 -3.2 c0.64 -0.76 1.92 -1.76 2.16 -2.72 c0.16 -0.8 1.04 -1.44 1.48 -2.16 c0.68 -1.2 1.28 -2.4 1.92 -3.6 c0.76 0.4 1.12 0.4 1.12 1.28 c0 2.72 -3.8 7.08 -4 7.52 c-0.48 0.32 -1.96 2.28 -2.32 2.28 c-0.28 0.16 -0.92 0.96 -1.2 1.24 c0 0.52 -1.24 0.96 -1.28 0.96 c-0.24 0 -0.08 -0.24 -0.2 -0.24 s-0.28 0.24 -0.32 0.28 l0.16 0.4 c-0.32 0.32 -0.6 0.68 -0.92 1 c-0.28 0.28 -1.88 0.76 -1.88 0.92 c0 0.04 0.08 0.32 0.12 0.4 l-0.04 0.12 c-0.2 0 -0.24 -0.12 -0.4 -0.24 c-0.4 0 -0.56 0.84 -1.04 0.84 c-0.16 0 -0.4 0 -0.4 0.2 c0 0.12 0.08 0.16 0.16 0.16 c0 0.52 -1.04 0.48 -1.16 0.88 c-0.4 0.56 -0.76 0.36 -1.12 0.6 c-0.28 0.24 -1.56 1.04 -1.92 1.04 c-0.2 0 -1.36 0.96 -1.64 1.08 c-0.32 0.12 -0.48 0.24 -0.8 0.44 c0.32 0.56 1.92 0.8 2.56 1.08 c2.16 0.96 4.04 2.2 6.16 3.24 c0.84 0 2.08 1.52 2.8 1.88 c0 1 2.28 1.2 2.28 1.84 c0 0.16 -0.4 0.24 -0.56 0.24 c-2 0 -3.08 -1.44 -4.48 -2.48 c-2.28 -1.64 -4.84 -3.16 -7.4 -4.36 c-0.48 -0.2 -2.08 -0.68 -2.64 -0.68 c-0.32 0 -0.88 2.2 -1.04 2.56 c0 0.4 -0.36 0.8 -0.36 1.16 c0 1.04 -0.44 1.92 -0.68 2.92 c-0.12 0.4 -0.4 0.72 -0.48 1.12 c-0.24 0.96 -0.6 1.88 -0.76 2.8 c-0.2 0.56 -0.72 0.84 -0.72 1.4 l0 0.04 c0 0.2 0.04 0.4 0.2 0.56 c-0.24 0 -0.4 0.04 -0.64 0.04 c-0.92 0 -0.96 -1.08 -0.96 -1.76 l0 -0.28 c0 -2.24 0.4 -4.52 1.04 -6.72 l0.2 -0.64 l0 -0.08 l0 -0.08 z M-0.76 35.56 c0.04 0.2 1.04 0.4 1.2 0.4 c1.24 0 2.2 -0.12 3.36 -0.36 c0.08 0 0.16 -0.04 0.2 -0.04 c0.24 0 0.08 0.2 0.2 0.2 c0.28 0 0.72 -0.52 1 -0.52 c0.08 0 0.16 0.04 0.24 0.04 c0.48 0 2.4 -0.8 2.4 -1.28 c0 -0.16 -0.48 -0.2 -0.88 -0.2 l-0.44 0 c-1.56 0 -6.32 0.16 -7.28 1.76 z M12.76 32.56 c-0.36 0 -0.96 0.36 -1.24 0.56 l0.2 0.08 c0.52 -0.16 0.88 -0.52 1.36 -0.8 c1.6 -0.92 3.12 -1.88 4.6 -3 l0.36 -0.24 c0.96 -0.88 2.12 -1.56 3.04 -2.44 c0.48 -0.4 1.72 -1.8 2.2 -1.96 c0.2 -0.28 1.12 -1.2 1.2 -1.48 c-0.32 0.12 -2.32 2.04 -2.6 2.4 c-1.04 1.08 -2.12 1.76 -3.68 3.16 c-0.04 0.04 -0.16 0.12 -0.16 0.16 c-0.76 0.04 -1.24 0.84 -1.76 1.24 c-0.6 0.4 -3.12 1.84 -3.52 2.32 z M8.24 35.44 l-0.04 -0.04 c-0.4 0.04 -0.72 2.44 -0.88 2.84 c-0.4 0.68 -0.88 3.72 -0.88 4.52 l0.08 0.04 c0 -0.44 0.28 -0.84 0.28 -1.28 c0 -2 1.44 -4.04 1.44 -6.08 z M9.24 31.36 l0.08 0 c0.36 -0.36 0.68 -1.52 0.8 -2 c0.52 -0.48 0.56 -2.12 0.96 -2.88 l0 -0.04 c-0.48 0.44 -1.12 3 -1.48 3.8 c-0.2 0.36 -0.32 0.76 -0.36 1.12 z M5.64 35.519999999999996 l0.12 0.08 c0.36 -0.12 1.64 -0.32 1.64 -0.8 l-0.08 0 c-0.56 0 -1.24 0.48 -1.68 0.72 z M18 28.560000000000002 l-0.04 -0.08 c-0.4 0.12 -1.28 0.68 -1.4 1.04 c-0.32 0.08 -0.64 0.28 -0.8 0.48 c0.52 0 1.72 -1.12 2.24 -1.44 z M11.32 32.84 l0 0.08 c0.92 -0.4 1.8 -0.96 2.6 -1.6 c-0.16 0.08 -2.52 1.28 -2.6 1.52 z M7.76 41.56 c-0.12 0 -0.24 0.76 -0.4 0.92 c0.04 0 0.08 0.04 0.12 0.04 c0.28 0 0.32 -0.32 0.32 -0.52 c0 -0.12 -0.04 -0.28 -0.04 -0.44 z M8.04 40.48 c0.12 -0.04 0.2 -0.08 0.2 -0.2 c0 -0.04 -0.04 -0.2 -0.04 -0.24 c-0.2 0.04 -0.36 0.2 -0.36 0.36 l0 0 c0.08 0.04 0.16 0.08 0.2 0.08 z M21.12 25.560000000000002 c0.08 0 0.08 0.04 0.08 0.12 c-0.16 0.16 -0.52 0.32 -0.68 0.56 l0 -0.08 c0.16 -0.2 0.44 -0.36 0.6 -0.6 z M9.16 32.36 c0 -0.08 -0.04 -0.12 -0.08 -0.16 c0 0.12 -0.16 0.32 -0.16 0.44 c0 0.04 0.04 0.08 0.04 0.08 c0.08 -0.04 0.2 -0.32 0.2 -0.36 z M14.36 31.08 c0.16 -0.08 0.88 -0.48 0.88 -0.68 c-0.32 0.24 -0.6 0.44 -0.88 0.68 z M21.92 26.759999999999998 l0 -0.04 c-0.08 0.08 -0.36 0.24 -0.36 0.36 c0.12 -0.08 0.36 -0.2 0.36 -0.32 z M8.32 34.519999999999996 c0.16 0 0.2 -0.12 0.2 -0.28 l0 -0.04 c-0.12 0.12 -0.12 0.2 -0.2 0.32 z M25.16 22.64 l-0.08 0 c-0.08 0.04 -0.16 0.12 -0.24 0.2 l0.08 0.04 z M7.36 41.68 l-0.04 0 l0 0.08 c0.04 0 0.04 -0.08 0.04 -0.08 z M19.36 27.28 l-0.08 0.04 l0 0.04 l0.04 0 s0.04 0 0.04 -0.04 l0 -0.04 z M9.16 31.84 c-0.04 0.04 -0.04 0.04 -0.04 0.08 c0.04 0 0.04 -0.08 0.04 -0.08 z M15.68 30.119999999999997 c0.04 -0.04 0.04 -0.04 0.04 -0.08 c-0.04 0 -0.04 0.04 -0.04 0.08 z M22 26.64 l-0.08 0.08 c0.04 0 0.08 -0.04 0.08 -0.08 z M29.44 32.76 l-0.04 -0.04 c0.28 -0.16 0.56 -0.48 0.68 -0.8 l-0.04 -0.04 c0.04 -0.36 0.52 -0.8 0.8 -1.04 l-0.04 -0.08 l0.04 -0.08 l0.08 0.08 l0.2 -0.28 l-0.08 -0.08 l0.12 -0.12 c0 -0.56 1.28 -1.88 1.76 -2.2 l0 0 c0.16 -0.04 0.32 -0.12 0.48 -0.12 l0.04 0.04 c0.16 0 0.24 -0.2 0.44 -0.2 l0 0.04 c0.08 -0.08 0.24 -0.16 0.44 -0.16 l0 0.08 l0.16 -0.08 l0.2 0.04 l0.12 -0.04 c0.04 0.24 0.2 0.2 0.2 0.44 c0 0.2 -0.12 0.48 -0.16 0.68 l0 0.04 c-0.36 0.8 -0.84 1.92 -0.96 2.76 c-0.08 0.8 -0.16 1.72 -0.44 2.44 c0 0.04 0 0.12 -0.08 0.12 c-0.12 0 -0.12 0.44 -0.12 0.52 c0 0.52 -0.16 0.96 -0.16 1.48 c0 0.24 0.08 1.52 0.52 1.52 l0.28 -0.2 c0.12 0 0.04 0.2 0.2 0.2 c0 0.12 -0.12 0.04 -0.16 0.2 c0.04 0.04 0.12 0.08 0.12 0.16 l-0.08 0.2 l0 0.08 c-0.08 0 -0.16 0.12 -0.16 0.16 l0.04 0.04 c0 0.12 -0.16 0.12 -0.24 0.16 l-0.04 -0.08 l-0.2 0.12 l-0.12 0 c-0.12 0 -0.24 0.08 -0.36 0.08 c-0.16 -0.08 -0.24 -0.16 -0.36 -0.16 l-0.04 0.04 c-0.24 -0.04 -0.64 -0.36 -0.8 -0.48 c-0.48 -0.24 -0.52 -0.68 -0.52 -1.16 c0 -0.24 -0.2 -0.48 -0.2 -0.72 c0 -0.4 0.2 -0.88 0.2 -1.36 l-0.04 -0.04 l0.04 -0.12 c0 -0.6 0.16 -0.96 0.16 -1.48 c0 -0.04 -0.08 -0.16 -0.08 -0.2 c-0.04 0.4 -0.8 0.88 -0.92 1.24 c-0.32 0.44 -0.64 0.84 -0.92 1.24 c-1.12 0.8 -0.88 0.92 -1.68 1.64 c-0.28 0.28 -0.64 0.48 -0.96 0.72 l0 -0.04 c-0.68 0 -1.2 0.36 -1.88 0.36 c-0.04 0 -0.24 -0.12 -0.32 -0.12 l-0.16 0.04 c-0.56 -0.64 -0.84 -1.28 -0.84 -2.08 c0 -1 0.32 -2 0.68 -2.96 c0.32 -0.88 0.76 -1.72 1.28 -2.52 c0.16 -0.28 0.36 -0.56 0.52 -0.8 l0.2 -0.32 s0.16 -0.04 0.16 -0.08 l0.52 -1.08 c0 -0.04 0.32 -0.32 0.32 -0.36 c0 -0.16 2.04 -1.64 2.36 -1.84 c0.4 0 0.8 -0.16 1.12 -0.32 c0 0 0.44 -0.2 0.52 -0.2 c0.04 0 0 0 0 0.04 c0.12 -0.04 0.48 -0.12 0.8 -0.12 c0.08 0 0.16 0 0.2 0.04 l-0.04 -0.08 c0.72 0 1.44 0.68 1.88 1.16 c0.04 0.08 0.08 0.12 0.2 0.12 l-0.04 0.04 l0.08 0.12 l0 0.04 l-0.2 -0.04 l-0.08 0.08 c0 0.2 0.28 0.24 0.28 0.36 l-0.2 -0.12 l-0.24 0.08 c0 0.16 0.24 0.2 0.44 0.24 c-0.88 -0.2 -0.96 -0.12 -1.72 -0.6 c-0.28 -0.16 -0.56 -0.6 -0.88 -0.6 c-0.04 0 -0.76 0.2 -0.84 0.24 c0.12 -0.12 0.28 -0.16 0.44 -0.24 c-0.2 0 -1.2 0.48 -1.2 0.68 l0.2 0 c-0.04 0.2 -0.48 0.72 -0.72 0.76 l0.08 0.08 l-0.08 0.04 l0.12 0.12 c-0.28 0.2 -0.68 0.64 -0.68 0.96 c-0.2 0.16 -0.92 1.44 -0.96 1.68 c-0.36 0.2 -0.76 1.08 -0.88 1.48 l0 -0.04 c-0.64 0.72 -1.68 3.52 -1.76 4.56 c0.08 0.08 -0.04 0.16 0.12 0.16 c0.32 -0.36 1 -1 1.52 -1.12 l0.16 0 l0.08 -0.16 l-0.04 0 c0.04 -0.12 0.32 -0.36 0.36 -0.48 l0 0.04 c0 -0.32 0.24 -0.68 0.6 -0.8 l-0.04 0 c0.04 -0.2 0.52 -0.24 0.52 -0.6 l-0.04 -0.04 l0.2 -0.12 l-0.04 0 c0.04 -0.28 0.28 -0.56 0.56 -0.72 z M29.400000000000002 27.759999999999998 c0.16 -0.2 0.52 -0.92 0.88 -0.96 c-0.2 0.36 -0.68 0.64 -0.88 1 l0 -0.04 z M30.36 27.04 l-0.04 -0.04 c0.04 -0.04 0.12 -0.16 0.16 -0.2 l0.08 0.08 c0 0.08 -0.12 0.12 -0.2 0.16 z M30.880000000000003 26.64 c-0.08 0.04 -0.16 0.12 -0.28 0.16 l0 0 c0.08 -0.08 0.2 -0.16 0.28 -0.16 z M25.72 30.560000000000002 c0.04 -0.04 0.08 -0.08 0.08 -0.12 c-0.08 0 -0.08 0.08 -0.08 0.12 z M34.36 27.560000000000002 l-0.08 0 c-0.16 0 -0.28 -0.04 -0.32 -0.08 c0.12 0 0.28 0.08 0.4 0.08 z M27.44 35.44 l0.08 0 l0 -0.04 z M30.84 31.2 l0.08 0 l0.04 -0.04 c-0.04 0 -0.08 0 -0.12 0.04 z M27.44 35.44 l-0.04 0.08 l0 0.04 c0.04 -0.04 0.04 -0.08 0.04 -0.12 z M31.44 34.64 l0 0.08 l0.04 -0.04 z M30.92 30.6 l-0.04 0 l0.04 -0.04 c0.04 0 0.04 0 0.04 -0.04 c0 0.04 0 0.04 -0.04 0.08 z M30.84 30.64 c0 -0.04 0 -0.04 0.04 -0.04 c0 0.04 0 0.04 -0.04 0.04 z M34.32 27.6 l0 0 l0 0 l0 0 z M27.080000000000002 35.72 l0.12 -0.04 c-0.04 0.04 -0.04 0.04 -0.12 0.04 z M33.8 27.439999999999998 l0 0.04 l0 -0.04 z M35.52 37.76 c0 -0.16 0.08 -0.32 0.08 -0.48 c0 -0.12 -0.04 -0.24 -0.04 -0.4 c0 -0.48 0.08 -0.84 0.2 -1.32 c-0.04 -0.08 -0.04 -0.16 -0.04 -0.24 c0 -0.2 0.12 -0.4 0.12 -0.64 l-0.04 0 l0.04 -0.2 c-0.04 -0.08 -0.04 -0.24 -0.04 -0.44 c0 -1 0.2 -2.24 0.32 -2.36 l-0.12 -0.16 l0.04 -0.12 c-0.04 -0.08 -0.04 -0.2 -0.04 -0.36 c0 -0.84 0.28 -2.64 0.68 -2.64 c0.24 0 0.52 0 0.84 0.12 l0.2 0.08 s0.16 0.08 0.2 0.08 l0 -0.04 c0.44 0.56 0.52 -0.08 0.52 1.24 c0 0.2 -0.2 0.32 -0.2 0.52 c0 0.24 0.12 0.48 0.12 0.72 c0 0.16 -0.12 2.12 -0.28 2.36 c0 0.04 0.04 0.16 0.04 0.2 c0 0.36 -0.12 0.8 -0.12 1.16 c0 0.12 0.04 0.16 0.04 0.24 l0.2 0.12 c0.24 0 1.6 -3.04 1.96 -3.04 c0.12 0 0.16 0.08 0.16 0.2 l-0.2 0.4 l0.04 0.08 c0 0.08 -0.2 0.2 -0.32 0.24 c-0.04 -0.04 -0.12 -0.04 -0.2 -0.08 c-0.12 0 -0.2 0.2 -0.2 0.24 c0 0.16 0.24 0.16 0.36 0.2 c0.52 0 0.72 -2 1.28 -2.32 c-0.04 0 -0.32 0 -0.32 -0.12 c0 -0.16 0.08 -0.32 0.28 -0.36 c0.12 0.08 0.2 0.24 0.4 0.24 l0.12 -0.16 c0 -0.08 -0.12 -0.12 -0.16 -0.16 c0.04 -0.12 0.24 -0.36 0.24 -0.44 l-0.12 -0.08 l-0.12 0.08 c-0.04 -0.08 -0.16 -0.16 -0.16 -0.24 c0 -0.44 0.64 -0.44 0.76 -0.72 l0.08 0.04 c-0.04 0.28 -0.08 0.48 -0.36 0.64 l0.08 0.04 c0.32 0 0.52 -0.4 0.6 -0.68 l0.08 -0.24 c0 -0.04 0.04 -0.12 0.04 -0.12 c0.08 -0.28 0.32 -0.28 0.32 -0.56 c0 -0.36 -0.44 -0.2 -0.44 -0.4 c0 -0.16 0.12 -0.28 0.28 -0.36 l0.12 0.04 l0.08 -0.08 c-0.08 -0.04 -0.2 -0.12 -0.2 -0.2 l0.04 -0.04 l0.16 0.04 l0.08 0 l0.08 0.16 c0 0.12 -0.16 0.2 -0.16 0.48 l0.08 0.04 c0.36 -0.08 0.48 -0.68 0.48 -0.96 c-0.08 -0.04 -0.2 -0.2 -0.2 -0.28 l0.08 -0.08 l0.12 0.08 c0.24 0 0.56 -0.12 0.64 -0.36 c-0.16 -0.16 -0.4 0 -0.4 -0.2 s-0.2 -0.24 -0.32 -0.32 c0.04 -0.08 0.12 -0.28 0.24 -0.28 c0.08 0 0.24 0.28 0.24 0.36 l0 0.12 c0 0.08 0.16 0.12 0.2 0.12 c0.16 0 0.16 -0.24 0.32 -0.32 l0.12 0.08 l-0.12 0.2 l0.12 0 c0.16 0 0.24 0.2 0.24 0.36 c0 0.32 -1 1.28 -1.16 2.08 c-0.2 0.84 -0.44 1.56 -1.04 2.24 c0.04 0.04 0.08 0.16 0.08 0.2 c0 0.28 -0.32 0.92 -0.52 1.2 c-0.64 1.2 -0.68 2 -1.4 2.92 c0 0.48 -0.36 0.84 -0.52 1.28 c-0.32 0.72 -1.8 3.76 -2.72 3.76 c-0.12 0 -0.16 -0.04 -0.24 -0.04 s-0.2 0.12 -0.32 0.12 c-0.6 0 -1.44 -0.4 -1.44 -1.04 c0 -0.48 0.04 -0.96 0.04 -1.44 z M45.2 23.12 l0 0.12 c0 0.52 -0.64 0.96 -0.64 1.16 s-0.32 0.28 -0.44 0.36 l-0.08 -0.16 l0 -0.2 c0.08 -0.08 0.64 -0.48 0.64 -0.64 l0 0 c0.08 -0.16 0.32 -0.64 0.52 -0.64 z M42.2 28.240000000000002 c0 0.24 -0.04 0.52 -0.32 0.52 c-0.12 0 -0.12 -0.04 -0.12 -0.12 c0 -0.24 0.2 -0.56 0.28 -0.72 c0.08 0.08 0.16 0.2 0.16 0.32 z M44.720000000000006 25.52 l0.16 0.08 l0.2 -0.08 l0.04 0.16 c-0.08 0.08 -0.32 0.28 -0.4 0.28 c-0.12 0 -0.12 -0.12 -0.12 -0.16 l0 -0.12 c0 -0.08 0 -0.16 0.12 -0.16 z M45.440000000000005 24.880000000000003 l0 0.12 c-0.12 0.16 0 0.24 -0.24 0.36 l-0.08 0 c0.12 -0.16 0.12 -0.36 0.32 -0.48 z M44.040000000000006 25.2 l-0.08 -0.2 c0.08 -0.08 0.12 -0.12 0.12 -0.16 c0.04 0.04 0.08 0.12 0.08 0.2 z M44.84 25.119999999999997 l-0.08 -0.08 c0 -0.04 0.08 -0.08 0.2 -0.08 c0 0 0.04 0.04 0.08 0.04 c0 0.12 -0.08 0.12 -0.2 0.12 z M43.24 26.16 l0.12 -0.12 l0.04 0.12 l-0.04 0.16 z M39.24 34.72 l0.08 -0.08 l0 -0.08 l-0.2 0.12 z M44.400000000000006 25.16 l-0.04 0.04 l-0.08 -0.04 l0.12 0 z M43.84 37.6 l0.04 0 c0.12 -0.92 0.48 -2 0.48 -2.92 c0 -0.28 0.24 -0.32 0.32 -0.52 l-0.12 -0.28 c0.04 -0.12 0.16 -0.24 0.32 -0.36 l-0.16 -0.28 c0.04 -0.32 0.24 -0.28 0.32 -1 c0.04 -0.16 0.24 -0.28 0.28 -0.48 l-0.12 -0.2 c0.16 -1.2 1.84 -4.72 1.84 -5.4 c0 -0.28 0.16 -0.48 0.52 -0.48 c0.76 0 1.52 0.56 1.52 1.28 c0 0.56 -0.52 0.96 -0.52 1.28 c-0.12 0.88 -0.64 1.6 -0.88 2.44 c-0.08 0.2 -0.56 1.84 -0.72 1.96 l-0.04 0.24 l-0.12 0.2 c0 0.12 0.04 0.24 0.04 0.32 c0 0.12 -0.24 0 -0.24 0.2 l0.04 -0.04 l0.16 0.16 c-0.04 0.16 -0.16 0.4 -0.32 0.52 c0 0.12 0.12 0.08 0.12 0.2 c0 0.72 -0.4 1.64 -0.52 2.36 l0 0.12 c0 0.12 -0.2 0.28 -0.2 0.36 c0 0.12 0.08 0.24 0.08 0.32 s0 0.08 -0.04 0.12 l0.12 0.08 c0.4 0 1.72 -1.64 2 -2.04 c0.68 -1.12 4.76 -5.32 4.88 -5.64 c0.08 -0.4 0.56 -0.84 1.04 -0.84 c0.08 0 0.08 0.24 0.08 0.4 l0 0.24 c0 0.12 -0.28 0.32 -0.28 0.56 c0 0 0 0.04 0.04 0.08 c-0.12 0.64 -4.32 4.32 -5.12 5.16 c-0.4 0.4 -0.72 0.92 -1.04 1.36 l0.04 0.08 c0.88 0 1.96 -2.6 3 -3.12 l0.04 0.08 c-0.04 0.36 -2 3.24 -2.4 3.72 c-0.64 0.8 -1.6 1.68 -2.56 1.68 c-0.6 0 -1.2 -0.32 -1.56 -0.72 l0 0 c-0.4 -0.32 -0.2 -0.76 -0.36 -1.2 z M49.92 24.4 c-0.28 0 -0.32 -0.32 -0.84 -0.32 c-0.4 0 -0.68 -0.16 -0.68 -0.6 c0 -0.16 0 -0.36 0.12 -0.48 c0 -0.04 -0.04 -0.08 -0.04 -0.12 c0 -0.28 0.44 -0.48 0.68 -0.48 c0.72 0 1.48 0.56 1.48 1.24 c0 0.36 -0.32 0.76 -0.72 0.76 z M45.52 36.96 l0.04 -0.08 l-0.04 -0.16 l-0.12 0.12 z M45.400000000000006 37.52 l-0.04 -0.04 c-0.04 0.04 -0.08 0.04 -0.16 0.08 l0.12 0.08 z M62.400000000000006 37.2 c0.08 -0.52 0.4 -1.08 0.4 -1.6 c-0.76 0 -2.24 0.68 -3.08 0.92 c-1.04 0.24 -1.96 0.36 -2.96 0.36 c-1.36 0 -2.28 -0.44 -3.16 -1.36 c-0.08 -0.08 -0.2 -0.24 -0.2 -0.32 c0 -1.36 3.52 -1.68 5.24 -2.12 c1 -0.24 5 0.04 5.12 -0.84 c0.12 -1.12 0.64 -2.16 0.96 -3.24 c0.32 -1.2 1.16 -2.4 1.24 -3.6 c0.6 -1.12 0.84 -2.32 1.4 -3.44 c0.6 -1.12 0.72 -2.4 1.4 -3.48 c0.4 -0.6 0.32 -1.72 1.36 -1.72 c0.64 0 0.76 0.04 0.76 0.56 c0 0.2 0.2 0.4 0.2 0.68 c0 0.72 -0.56 1.72 -0.56 2.36 c0 0.04 0 0.12 0.04 0.2 c-0.32 1.28 -0.8 2.4 -1.32 3.6 c-0.08 0.08 -0.2 0.48 -0.2 0.56 c0 0.2 0.16 0.2 0.16 0.32 c0 0.24 -0.92 2.76 -1.08 3.04 c0 0.36 -1.04 3.64 -1.24 4.08 l0.08 0.12 c1.24 -0.52 2.2 -1.48 3.6 -2.24 c1.44 -0.76 2.72 -1.76 3.84 -2.8 c0.36 -0.12 0.92 -0.6 1.2 -0.84 l0.08 0.08 l-0.28 0.36 l0.12 0.04 c0.44 -0.68 1.24 -1.04 1.8 -1.64 c0 -0.04 -0.04 -0.04 -0.04 -0.08 c0 -0.44 0.76 -0.84 1 -1.24 c1.2 -1.08 2.16 -2.08 3.12 -3.2 c0.64 -0.76 1.92 -1.76 2.16 -2.72 c0.16 -0.8 1.04 -1.44 1.48 -2.16 c0.68 -1.2 1.28 -2.4 1.92 -3.6 c0.76 0.4 1.12 0.4 1.12 1.28 c0 2.72 -3.8 7.08 -4 7.52 c-0.48 0.32 -1.96 2.28 -2.32 2.28 c-0.28 0.16 -0.92 0.96 -1.2 1.24 c0 0.52 -1.24 0.96 -1.28 0.96 c-0.24 0 -0.08 -0.24 -0.2 -0.24 s-0.28 0.24 -0.32 0.28 l0.16 0.4 c-0.32 0.32 -0.6 0.68 -0.92 1 c-0.28 0.28 -1.88 0.76 -1.88 0.92 c0 0.04 0.08 0.32 0.12 0.4 l-0.04 0.12 c-0.2 0 -0.24 -0.12 -0.4 -0.24 c-0.4 0 -0.56 0.84 -1.04 0.84 c-0.16 0 -0.4 0 -0.4 0.2 c0 0.12 0.08 0.16 0.16 0.16 c0 0.52 -1.04 0.48 -1.16 0.88 c-0.4 0.56 -0.76 0.36 -1.12 0.6 c-0.28 0.24 -1.56 1.04 -1.92 1.04 c-0.2 0 -1.36 0.96 -1.64 1.08 c-0.32 0.12 -0.48 0.24 -0.8 0.44 c0.32 0.56 1.92 0.8 2.56 1.08 c2.16 0.96 4.04 2.2 6.16 3.24 c0.84 0 2.08 1.52 2.8 1.88 c0 1 2.28 1.2 2.28 1.84 c0 0.16 -0.4 0.24 -0.56 0.24 c-2 0 -3.08 -1.44 -4.48 -2.48 c-2.28 -1.64 -4.84 -3.16 -7.4 -4.36 c-0.48 -0.2 -2.08 -0.68 -2.64 -0.68 c-0.32 0 -0.88 2.2 -1.04 2.56 c0 0.4 -0.36 0.8 -0.36 1.16 c0 1.04 -0.44 1.92 -0.68 2.92 c-0.12 0.4 -0.4 0.72 -0.48 1.12 c-0.24 0.96 -0.6 1.88 -0.76 2.8 c-0.2 0.56 -0.72 0.84 -0.72 1.4 l0 0.04 c0 0.2 0.04 0.4 0.2 0.56 c-0.24 0 -0.4 0.04 -0.64 0.04 c-0.92 0 -0.96 -1.08 -0.96 -1.76 l0 -0.28 c0 -2.24 0.4 -4.52 1.04 -6.72 l0.2 -0.64 l0 -0.08 l0 -0.08 z M54.68000000000001 35.56 c0.04 0.2 1.04 0.4 1.2 0.4 c1.24 0 2.2 -0.12 3.36 -0.36 c0.08 0 0.16 -0.04 0.2 -0.04 c0.24 0 0.08 0.2 0.2 0.2 c0.28 0 0.72 -0.52 1 -0.52 c0.08 0 0.16 0.04 0.24 0.04 c0.48 0 2.4 -0.8 2.4 -1.28 c0 -0.16 -0.48 -0.2 -0.88 -0.2 l-0.44 0 c-1.56 0 -6.32 0.16 -7.28 1.76 z M68.2 32.56 c-0.36 0 -0.96 0.36 -1.24 0.56 l0.2 0.08 c0.52 -0.16 0.88 -0.52 1.36 -0.8 c1.6 -0.92 3.12 -1.88 4.6 -3 l0.36 -0.24 c0.96 -0.88 2.12 -1.56 3.04 -2.44 c0.48 -0.4 1.72 -1.8 2.2 -1.96 c0.2 -0.28 1.12 -1.2 1.2 -1.48 c-0.32 0.12 -2.32 2.04 -2.6 2.4 c-1.04 1.08 -2.12 1.76 -3.68 3.16 c-0.04 0.04 -0.16 0.12 -0.16 0.16 c-0.76 0.04 -1.24 0.84 -1.76 1.24 c-0.6 0.4 -3.12 1.84 -3.52 2.32 z M63.68000000000001 35.44 l-0.04 -0.04 c-0.4 0.04 -0.72 2.44 -0.88 2.84 c-0.4 0.68 -0.88 3.72 -0.88 4.52 l0.08 0.04 c0 -0.44 0.28 -0.84 0.28 -1.28 c0 -2 1.44 -4.04 1.44 -6.08 z M64.68 31.36 l0.08 0 c0.36 -0.36 0.68 -1.52 0.8 -2 c0.52 -0.48 0.56 -2.12 0.96 -2.88 l0 -0.04 c-0.48 0.44 -1.12 3 -1.48 3.8 c-0.2 0.36 -0.32 0.76 -0.36 1.12 z M61.080000000000005 35.519999999999996 l0.12 0.08 c0.36 -0.12 1.64 -0.32 1.64 -0.8 l-0.08 0 c-0.56 0 -1.24 0.48 -1.68 0.72 z M73.44 28.560000000000002 l-0.04 -0.08 c-0.4 0.12 -1.28 0.68 -1.4 1.04 c-0.32 0.08 -0.64 0.28 -0.8 0.48 c0.52 0 1.72 -1.12 2.24 -1.44 z M66.76 32.84 l0 0.08 c0.92 -0.4 1.8 -0.96 2.6 -1.6 c-0.16 0.08 -2.52 1.28 -2.6 1.52 z M63.2 41.56 c-0.12 0 -0.24 0.76 -0.4 0.92 c0.04 0 0.08 0.04 0.12 0.04 c0.28 0 0.32 -0.32 0.32 -0.52 c0 -0.12 -0.04 -0.28 -0.04 -0.44 z M63.480000000000004 40.48 c0.12 -0.04 0.2 -0.08 0.2 -0.2 c0 -0.04 -0.04 -0.2 -0.04 -0.24 c-0.2 0.04 -0.36 0.2 -0.36 0.36 l0 0 c0.08 0.04 0.16 0.08 0.2 0.08 z M76.56 25.560000000000002 c0.08 0 0.08 0.04 0.08 0.12 c-0.16 0.16 -0.52 0.32 -0.68 0.56 l0 -0.08 c0.16 -0.2 0.44 -0.36 0.6 -0.6 z M64.60000000000001 32.36 c0 -0.08 -0.04 -0.12 -0.08 -0.16 c0 0.12 -0.16 0.32 -0.16 0.44 c0 0.04 0.04 0.08 0.04 0.08 c0.08 -0.04 0.2 -0.32 0.2 -0.36 z M69.80000000000001 31.08 c0.16 -0.08 0.88 -0.48 0.88 -0.68 c-0.32 0.24 -0.6 0.44 -0.88 0.68 z M77.36000000000001 26.759999999999998 l0 -0.04 c-0.08 0.08 -0.36 0.24 -0.36 0.36 c0.12 -0.08 0.36 -0.2 0.36 -0.32 z M63.760000000000005 34.519999999999996 c0.16 0 0.2 -0.12 0.2 -0.28 l0 -0.04 c-0.12 0.12 -0.12 0.2 -0.2 0.32 z M80.60000000000001 22.64 l-0.08 0 c-0.08 0.04 -0.16 0.12 -0.24 0.2 l0.08 0.04 z M62.800000000000004 41.68 l-0.04 0 l0 0.08 c0.04 0 0.04 -0.08 0.04 -0.08 z M74.80000000000001 27.28 l-0.08 0.04 l0 0.04 l0.04 0 s0.04 0 0.04 -0.04 l0 -0.04 z M64.60000000000001 31.84 c-0.04 0.04 -0.04 0.04 -0.04 0.08 c0.04 0 0.04 -0.08 0.04 -0.08 z M71.12 30.119999999999997 c0.04 -0.04 0.04 -0.04 0.04 -0.08 c-0.04 0 -0.04 0.04 -0.04 0.08 z M77.44 26.64 l-0.08 0.08 c0.04 0 0.08 -0.04 0.08 -0.08 z M79.4 37.12 l-0.08 -0.28 c0.28 -0.52 0.28 -1.12 0.48 -1.68 c0.36 -0.24 0.32 -0.8 0.44 -1.16 c0.24 -0.48 0.72 -0.96 0.88 -1.44 l0 0.08 l0.2 -0.28 c0 -0.44 0.6 -0.72 0.6 -0.88 c0 -0.36 -1.08 -1.4 -1.24 -1.8 c-0.16 -0.44 -0.28 -0.96 -0.48 -1.4 c0 -0.04 0.04 -0.04 0.04 -0.08 c0 -0.24 -0.12 -0.44 -0.12 -0.68 c0 -0.64 0.64 -1.2 1.48 -1.2 c0.24 0 0.48 0.08 0.72 0.12 c0.04 0 0.08 -0.04 0.16 -0.04 c1.48 0 2.24 1.44 2.64 1.44 c0.48 0 0.92 -0.08 1.48 -0.08 c0.32 0 1 0.16 1 0.56 c0 1.2 -1.4 1.36 -1.4 1.68 c0.04 0.12 0.04 0.2 0.04 0.32 l0 0.16 c0.6 0.4 0.88 1.24 0.88 1.88 l0 0.2 l0.16 -0.16 c0.28 0 0.28 1.04 0.28 1.24 l0 0.08 c-0.56 2.84 -2.52 5.88 -5.12 5.88 c-0.64 0 -1.68 0 -2.12 -0.48 c-0.44 -0.44 -0.96 -1 -0.96 -1.64 c0 -0.12 0 -0.24 0.04 -0.36 z M85.60000000000001 32.72 l-0.08 -0.12 l-0.04 0.04 c-0.12 -0.44 -0.32 -0.88 -0.48 -1.32 l-0.28 -0.64 l-0.08 -0.08 l0.04 -0.04 c-0.16 0 -1.12 1.92 -1.44 2.2 l-0.08 -0.2 l-0.28 0.48 s-0.04 0.2 -0.08 0.2 l0 -0.04 l-0.08 0.12 l0.04 0.04 c0 0.12 -0.24 0.16 -0.32 0.28 c0 0.04 0.04 0.12 0.04 0.2 c0 0.48 -0.52 1.48 -0.84 1.96 l-0.28 0.6 c0 0.16 0.08 0.32 0.08 0.48 c0 0.36 -0.32 0.48 -0.32 0.56 l0.2 0.2 c0 0.12 -0.08 0.28 -0.16 0.36 c0 0.32 0.04 0.64 0.48 0.64 c0.24 0 1.64 -0.8 1.84 -0.96 c1.12 -1.08 2.04 -2.6 2.04 -4.08 c0 -0.24 0.28 -0.52 0.28 -0.76 c0 -0.12 -0.04 -0.24 -0.04 -0.32 c-0.04 0.04 -0.08 0.16 -0.16 0.2 z M82.04 27.119999999999997 c-0.56 0 -0.84 1.28 -0.84 1.64 c0 0.8 0.4 1.88 0.84 2.32 c0.64 -0.32 0.84 -1.6 1.12 -1.6 c0.12 -0.08 0.48 -0.64 0.48 -0.8 c0 -0.64 -1.32 -1.56 -1.6 -1.56 z M84.72 36.44 l0.04 0.04 l-0.12 0.08 l0.08 0.04 c0.6 0 0.72 -0.68 0.8 -0.68 l0 0.04 c0 -0.2 0.72 -0.84 0.8 -1.48 c0.04 -0.32 0.04 -0.68 0.28 -0.96 l-0.12 -0.04 c0 0.2 -0.44 0.56 -0.56 0.72 c-0.44 0.52 -0.6 1.56 -1.2 2.24 z M79.80000000000001 36.44 l0 0.24 l0.04 0.04 c0.44 -1.16 0.92 -2.8 1.64 -3.8 c-1 1.4 -1.2 2.84 -1.68 3.52 z M81.04 34.64 l0.04 0 c-0.36 0 -0.44 0.88 -0.64 1.12 l0.04 0.04 c0.2 -0.36 0.4 -0.76 0.56 -1.16 z M85.12 30.8 l0 0.08 c0 0.08 0 0.24 0.08 0.24 c0 -0.8 -0.24 -0.64 -0.28 -0.76 l-0.04 0.04 c0.04 0.16 0.12 0.32 0.24 0.4 z M85.48 31.759999999999998 c0 0 -0.04 0.08 -0.04 0.12 c0 0.16 0.08 0.28 0.12 0.44 c-0.04 0.04 -0.04 0.04 -0.04 0.08 l0.04 0 l0.16 -0.04 c-0.16 -0.36 -0.16 -0.68 -0.36 -0.92 c0 0.12 0 0.2 0.12 0.32 z M80.44000000000001 36.28 l-0.04 -0.16 c-0.16 0.12 -0.24 0.44 -0.24 0.6 l0.04 0.08 c0.04 -0.16 0.12 -0.36 0.24 -0.52 z M81.36 33.68 l0.04 0.08 c0.12 0 0.36 -0.56 0.4 -0.68 c-0.12 0.12 -0.44 0.56 -0.44 0.6 z M85.96000000000001 29.439999999999998 l0.08 -0.12 l-0.04 -0.16 c-0.08 0 -0.12 0.04 -0.12 0.12 s0 0.16 0.04 0.16 l0.04 0 z M82.28 31.84 l-0.04 -0.04 c-0.16 0.28 -0.28 0.52 -0.44 0.76 c0.28 -0.28 0.28 -0.4 0.48 -0.72 z M81.24000000000001 34.08 l0.08 -0.08 l0 -0.08 c0 0.2 -0.2 0.32 -0.28 0.48 c0.12 0 0.16 -0.24 0.2 -0.32 z M80.16000000000001 36.96 l-0.08 0.08 l0.04 0.16 c0.04 -0.08 0.04 -0.16 0.04 -0.24 z M82.96000000000001 30.8 l0.08 -0.08 l-0.08 -0.12 l0 0.2 z M82.48 31.52 l0 0.08 c0.04 -0.04 0.04 -0.12 0.12 -0.16 l-0.08 0 s-0.04 0.04 -0.04 0.08 z M82.24000000000001 32.480000000000004 l-0.04 0.08 l0.04 0.04 l0.08 -0.08 z M83.16000000000001 27.6 l-0.04 0 c0 0.04 0.08 0.12 0.12 0.12 c-0.04 -0.04 -0.08 -0.12 -0.08 -0.12 z M82.08000000000001 32.88 l0.08 -0.04 c0 -0.04 0 -0.12 -0.08 -0.12 l-0.08 0.04 z M86.56 31.72 l0.04 0.04 l0 -0.16 z M85.68 32.72 l0.04 0 l-0.04 0.12 l-0.08 -0.08 z M81.88000000000001 32.76 l0.08 -0.04 l-0.04 0 z M85.52000000000001 29.48 l0 -0.04 l0 0.12 l0 -0.08 z M83.60000000000001 28.08 c0 0.04 0 0.04 0.04 0.08 l0.04 -0.04 c0 -0.04 -0.04 -0.04 -0.08 -0.04 z M85.2 31.28 c0.08 0.04 0.08 0.04 0.12 0.04 l0 -0.04 l-0.12 0 z M85.60000000000001 32.72 c-0.04 0.04 -0.04 0.08 -0.04 0.12 l0.04 0.04 l0 -0.16 z M82 27.2 l0 0.04 c0 -0.04 0 -0.04 0.04 -0.04 l-0.04 0 z M99.36000000000001 38.28 c-0.04 0.24 -0.28 0.36 -0.56 0.4 l-0.92 0.6 l-0.16 0 c-0.6 0.44 -1.72 0.64 -2.44 1.12 c-1.2 0.28 -3.4 1.16 -4.48 1.16 c-1.84 0 -3.28 -0.64 -3.28 -2.52 c0 -0.16 0.36 -0.44 0.36 -0.72 l0.04 0.12 l-0.04 0.28 l0.04 0.08 c0 -0.44 2.88 -3.84 2.96 -3.84 l0.28 0.2 l0.08 -0.04 l-0.08 -0.24 l0.04 -0.08 c-0.04 -0.12 -0.04 -0.16 -0.04 -0.28 s0.04 -0.2 0.12 -0.32 l-0.04 -0.16 c-0.2 0.08 -0.2 0.16 -0.36 0.16 c0 -0.36 1.16 -1.8 1.4 -2.12 l0.2 -0.4 c0.08 -0.12 0.44 -0.72 0.6 -0.72 l0.12 0.16 c0.36 0 1.2 -1.8 1.36 -2.16 c0 -0.36 0.84 -1.08 0.84 -2.28 l-0.08 -0.08 c-0.16 0.12 -0.4 0.08 -0.56 0.2 c-0.36 0.2 -0.48 0.44 -0.72 0.6 c-0.6 0.36 -1.36 0.68 -1.96 0.96 l-0.16 -0.04 c-0.24 -0.24 -1.08 -0.04 -1.36 -0.72 c0.16 -0.28 0.6 -0.64 0.88 -0.64 l-0.04 0 c0 -0.04 0.52 -0.28 0.6 -0.32 c0.6 -0.32 2.44 -2.08 4.12 -2.08 c0.12 0 0.08 0.24 0.32 0.24 c0.56 0 1 0.32 1.6 0.32 c0.08 0 0.2 -0.12 0.24 -0.12 c0.08 0 0.12 0.04 0.12 0.08 s0 0.08 -0.04 0.12 c0.04 0.12 0.04 0.2 0.04 0.32 c0 0.4 -0.12 0.76 -0.32 1.12 l0 -0.04 c-0.16 0 -0.92 2.08 -1.32 2.92 c-0.24 0.52 -0.56 1.08 -0.88 1.56 l-0.28 0.48 c-0.36 0.52 -0.84 1.12 -1.12 1.56 l-0.36 0.4 c-0.48 0.6 -0.68 1.28 -1.36 1.92 c-0.56 0.56 -1 1.32 -1.36 2.04 c0 0.8 -1.44 1.4 -1.44 2.4 c0.04 0.04 0.08 0.16 0.2 0.16 c1.08 0 2.44 -0.76 3.2 -0.76 c0.04 0 0.04 0 0.04 0.04 l0 0.08 c0 0.04 0 0.04 0.04 0.04 c0.08 0 0.6 -0.16 0.6 -0.24 l0 0 c-0.12 0 -0.16 0 -0.2 0.04 l-0.12 -0.04 c0.24 -0.2 0.64 -0.4 0.96 -0.4 l0 0.12 l0.08 0.12 c0.48 -0.08 0.84 -0.44 1.24 -0.44 c0.88 0 1.76 -0.72 2.52 -0.72 c0.2 0 0.44 0 0.44 0.24 c0 0.08 -0.16 0.16 -0.24 0.2 l0 0.04 c0 0.04 0 0.08 0.08 0.08 c0 0.04 -0.04 0.04 -0.04 0.04 l0 0.04 s0.08 -0.28 0.56 -0.28 z M89.32000000000001 36.4 l-0.04 0 s-0.04 0 -0.04 -0.04 c0.16 -0.28 1.24 -1.88 1.4 -1.92 l0.08 0.04 c-0.36 0.64 -0.8 1.44 -1.4 1.92 z M92.64000000000001 32.28 l-0.04 0.08 l0.12 0.12 l0.08 -0.08 l0 -0.16 z M92.72000000000001 33.88 c-0.04 0.04 -0.08 0.12 -0.08 0.12 l0 0.12 l0.16 -0.08 z M94.00000000000001 30.48 l0.04 0.12 l0.08 -0.08 l-0.08 -0.08 z M88.52000000000001 37.52 l-0.12 0.08 l0 -0.04 c0 -0.04 0 -0.04 0.04 -0.08 z M98.72000000000001 29.36 l0 0.04 c0.12 -0.12 0.2 -0.16 0.36 -0.16 c0.12 0 0.24 0.04 0.36 0.04 l0.12 0 c0.08 -0.16 0.16 -0.28 0.24 -0.44 c-0.04 -0.16 -0.04 -0.28 -0.04 -0.44 c0 -0.6 1.12 -3.64 1.28 -4.68 c0.2 -0.96 0.32 -2.04 0.68 -2.96 c0.48 -1.08 0.68 -0.56 0.96 -2.24 l-0.08 -0.08 c0.12 -0.76 0.44 -1.52 0.72 -2.2 c0.84 -0.6 0.28 -1.92 2.16 -1.92 c0.6 0 0.8 0.48 0.8 0.96 c0 0.6 -0.84 1.36 -0.84 1.92 l0 0 c-0.84 1.44 -2.16 5.04 -2.24 6.68 c-0.04 0.52 -0.56 1.24 -0.56 1.68 c0 0.56 -0.24 1.08 -0.28 1.64 c0 0.12 -0.12 0.32 -0.24 0.32 s-0.12 -0.08 -0.12 -0.08 l-0.12 0.12 c0 0.12 0.12 0.12 0.2 0.2 c-0.12 0.48 -0.24 0.84 -0.24 1.32 l0.16 0 c0.24 0 0.4 -0.16 0.64 -0.16 s0.56 0.16 0.8 0.32 l0.32 0.28 c0.12 0.2 0.52 0.48 0.64 0.64 c0.04 0.04 0.04 0.12 0.04 0.16 l0 0.12 c0 0.12 -0.44 0.28 -0.52 0.32 c-0.56 -0.04 -1.12 -0.12 -1.6 -0.12 c-0.16 0 -0.32 0.12 -0.48 0.12 s-0.36 -0.08 -0.52 -0.08 c-0.08 0.12 -0.08 0.28 -0.08 0.44 s0 0.36 0.04 0.48 l-0.24 0.2 c0 0.12 0.04 0.28 0.04 0.44 c0 0.96 -0.52 1.84 -0.52 2.84 c-0.04 0.04 -0.12 0.4 -0.12 0.68 c0 0.08 0 0.16 0.04 0.2 c-0.24 0.2 -0.24 0.56 -0.24 0.84 l0 0.24 l0 0.36 c0 0.76 0 2.2 0.32 2.64 c0.08 0.16 0.24 0.12 0.32 0.2 c0.16 0.2 0.48 0.8 0.8 0.8 c0.8 0 2 -1.64 2.4 -1.76 l0.04 0.08 l0 0.08 c-0.52 1.12 -0.96 2.24 -2.44 2.24 c-0.2 0.16 -0.48 0.16 -0.76 0.16 l-0.32 0 c-0.52 0 -2.2 -0.96 -2.2 -1.44 c0 -0.32 -0.36 -0.8 -0.36 -1.08 c0 -0.48 -0.12 -0.96 -0.12 -1.4 c0 -0.24 0.04 -0.44 0.04 -0.68 s-0.04 -0.52 -0.04 -0.72 l0 -0.12 c0.04 -0.32 0.28 -0.56 0.32 -0.88 c0.08 -1 0.28 -1.92 0.48 -2.92 l-0.04 -0.04 c0.2 -0.48 0.32 -1.08 0.44 -1.52 l-0.2 0 c-0.44 0 -0.88 0.28 -1.32 0.28 l-0.88 0 c-0.28 0 -0.68 -0.12 -0.72 -0.44 l0 0.04 c-0.12 -0.12 -0.36 -0.4 -0.36 -0.52 c0 -0.08 0.04 -0.16 0.04 -0.24 l0 -0.04 c0.52 -0.16 2.32 -0.8 2.84 -0.8 z M100.68000000000002 27.16 l0.12 0.04 l-0.04 0.12 c-0.28 0.28 -0.48 1.48 -0.64 1.96 l0.08 0 l0.2 -0.08 c0.04 -0.08 0.04 -0.16 0.08 -0.24 c0.12 -0.52 0.2 -1.04 0.32 -1.56 c0.28 -1.24 0.68 -2.56 1.2 -3.8 c0.12 -0.24 1.24 -2.72 1.2 -2.88 c-0.2 0.12 -1.88 3.84 -1.84 4.16 l-0.04 -0.08 l0 -0.08 c0 -0.04 0.4 -1.4 0.48 -1.56 c0.44 -1.44 1.8 -4.84 1.96 -6.12 l-0.08 -0.08 c-0.12 0.24 -0.64 1.12 -0.64 1.28 l0.04 0 c-0.6 1.48 -2.28 7.96 -2.72 8.6 l0 0.08 c0 0.4 -0.4 1.96 -0.44 2.28 l0.04 0 l0.12 0 c0.16 -0.68 0.36 -1.32 0.6 -2.04 z M99.08000000000001 35.92 l0.04 0 s-0.04 -0.08 -0.04 -0.12 c0 -0.8 0.4 -1.64 0.4 -2.4 l0 -0.08 c0.2 -0.44 0.28 -1.88 0.44 -2.44 l0 0 l-0.12 0.08 c-0.04 0 -0.08 -0.04 -0.08 -0.04 c-0.52 0.16 -0.84 1.52 -0.84 2 l0.04 0.08 c-0.44 1.08 -0.68 2.84 -0.68 4 c0 0.44 0 0.92 0.08 1.36 c-0.04 0.08 -0.04 0.12 -0.04 0.16 c0 0.12 0.04 0.28 0.04 0.36 l0.08 -0.2 l-0.04 -0.16 c0.24 -0.36 0.16 -1.04 0.24 -1.48 c0 0.24 -0.08 0.44 -0.08 0.64 c0 0.12 0.12 1.16 0.16 1.28 c0.12 -0.16 0.24 -0.36 0.24 -0.56 s-0.12 -0.36 -0.12 -0.56 c0 -0.28 0.28 -0.32 0.28 -0.52 c0 -0.08 0 -0.08 -0.04 -0.08 l0 0 c-0.04 0 -0.16 0 -0.16 -0.16 c0.2 -0.2 0.16 -0.48 0.32 -0.68 l-0.08 -0.24 l-0.08 0.08 l-0.04 0 c0 -0.12 0.04 -0.2 0.08 -0.32 z M100.04000000000002 37.24 c0 -0.08 0 -0.12 -0.12 -0.16 l-0.24 0.32 l-0.08 -0.08 l-0.04 0 c-0.2 0 -0.2 0.36 -0.2 0.6 l0 0.16 l0 0.36 c0 0.24 0.08 0.52 0.32 0.52 l0.12 0.12 c0.12 -0.04 0.12 -0.12 0.12 -0.16 c0 -0.16 0 -0.44 -0.08 -0.6 l-0.12 0.04 l0 0 c-0.08 -0.04 -0.12 -0.12 -0.12 -0.2 s0.36 -0.84 0.44 -0.92 z M99.96000000000001 36.56 l0.12 -0.28 l-0.04 -0.04 l0 -0.08 l0.04 -0.08 l0 -0.08 l-0.16 0 c0 -0.16 0.16 -0.2 0.16 -0.28 s-0.24 -0.16 -0.24 -0.52 c-0.12 0 -0.2 0.72 -0.28 0.88 l0 0.24 c0 0.24 0 0.48 0.04 0.68 c0 0.04 0 0.04 0.04 0.04 l0.08 -0.04 c0 -0.12 -0.04 -0.24 -0.08 -0.32 l0.08 -0.08 c0.12 0 0.08 0.16 0.2 0.28 l0.04 -0.12 l0 -0.2 z M100.24000000000001 33.4 l0 0.12 c0 0.16 -0.24 0.28 -0.28 0.44 l0.04 0.16 c-0.08 0.04 -0.08 0.12 -0.08 0.2 l0.08 0.12 c0.12 -0.16 0.4 -0.6 0.48 -0.76 l0 -0.48 c0.08 -0.04 0.12 -0.12 0.12 -0.16 c0 -0.12 -0.16 -0.16 -0.24 -0.16 l-0.12 0 c0 0.16 -0.08 0.36 -0.16 0.56 c0.04 0 0.12 -0.04 0.16 -0.04 z M103.52000000000001 18.6 c-0.28 0.08 -0.52 1.16 -0.64 1.44 c0.32 -0.44 0.56 -0.96 0.64 -1.44 z M101.68 26.32 l-0.16 -0.24 l0.04 -0.08 l0 0 c-0.12 0.2 -0.12 0.48 -0.24 0.72 l0.04 0.08 l0.32 -0.48 l0 0 z M99.20000000000002 33.2 c0 -0.32 0 -1 0.36 -1.24 c-0.2 0.32 -0.32 0.88 -0.36 1.24 z M100.64000000000001 29.04 l0.12 0.04 c0.08 -0.12 0.16 -0.32 0.24 -0.4 c-0.08 -0.12 -0.04 -0.24 -0.12 -0.32 c-0.08 0.2 -0.12 0.48 -0.24 0.68 z M100.80000000000001 31.28 l-0.04 0 l0.04 -0.16 l0 -0.04 c-0.2 0.08 -0.32 0.32 -0.36 0.48 l0.04 0.08 c0.12 -0.08 0.2 -0.2 0.32 -0.36 z M99.16000000000001 33.44 l0.04 0.16 c-0.04 0.12 -0.12 0.24 -0.16 0.36 c0 0.04 0.04 0.08 0.04 0.16 c0 0.04 -0.04 0.08 -0.04 0.08 c-0.04 -0.04 -0.04 -0.12 -0.04 -0.2 c0 -0.12 0.04 -0.48 0.16 -0.56 z M102.00000000000001 24.439999999999998 c-0.12 0 -0.16 0.32 -0.16 0.4 c0 0.04 0.04 0.12 0.12 0.16 l0.16 -0.08 c-0.12 -0.04 -0.12 -0.2 -0.12 -0.32 l0 -0.16 z M101.40000000000002 28.92 l-0.04 -0.16 c-0.16 0 -0.12 0.16 -0.24 0.28 l0 0.04 c0.16 0 0.24 -0.04 0.28 -0.16 z M99.20000000000002 35.36 l0.04 0.16 c0 -0.08 0.12 -0.36 0.12 -0.4 l0 -0.04 c-0.16 0 -0.16 0.2 -0.16 0.28 z M100.12000000000002 32.64 l-0.04 -0.04 c-0.12 0.08 -0.16 0.2 -0.16 0.32 c0.08 0 0.16 -0.2 0.2 -0.28 z M100.08000000000001 33.44 l-0.16 0 l-0.2 0.08 c0.04 0 0.2 0.08 0.24 0.08 c0.12 0 0.08 -0.08 0.12 -0.16 z M99.76000000000002 34.92 l0.16 0.12 l0.04 -0.12 l0 -0.08 l0.04 -0.04 l-0.04 -0.04 z M100.24000000000001 34.72 l-0.16 0.12 l0.04 0.12 l0.24 -0.16 z M100.12000000000002 34.480000000000004 l0.08 0.12 l0.08 -0.12 l-0.08 -0.16 z M102.32000000000002 23.52 l-0.2 0.4 l0.04 0 c0.08 0 0.16 -0.32 0.16 -0.4 z M101.52000000000001 28.32 l-0.08 -0.08 c-0.04 0 -0.08 0.08 -0.12 0.12 l0.16 0.04 z M101.88000000000001 25.2 l-0.04 0 c-0.08 0 -0.12 0.04 -0.12 0.16 l0.04 0 c0.08 -0.04 0.08 -0.08 0.12 -0.16 z M101.28000000000002 25.32 l-0.04 -0.08 l0 -0.16 l0.08 -0.04 l0 0 l0 0.04 l0 0.12 z M99.20000000000002 38.52 l-0.08 0.08 l0.08 0.04 l0.08 0 z M100.80000000000001 26.759999999999998 c0 0.04 0 0.16 -0.12 0.2 l-0.04 0 c0.04 -0.08 0.12 -0.16 0.16 -0.2 z M100.80000000000001 32.2 l-0.04 -0.16 l-0.08 0.04 l0.08 0.16 z M99.80000000000001 32.56 l0.04 0.04 l0.08 -0.08 l0 -0.08 c-0.08 0 -0.12 0.08 -0.12 0.12 z M100.24000000000001 40.96 l-0.04 -0.08 c-0.04 0.04 -0.12 0.04 -0.12 0.12 l0.08 0.04 z M99.76000000000002 38.04 l0.16 -0.04 l-0.08 -0.08 l-0.08 0.08 l0.04 0 z M101.76000000000002 26.08 l0.04 -0.08 l0 -0.04 l-0.12 0.04 z M100.80000000000001 31.560000000000002 l0 0.04 l0 0.04 l0.08 -0.04 l-0.04 -0.04 l-0.04 0 z M101.44000000000001 28 c0.04 0 0.04 0.04 0.04 0.08 l0.08 -0.04 c-0.04 -0.04 -0.08 -0.04 -0.12 -0.04 z M100.48000000000002 32.32 l-0.04 0.04 l0 0.04 l0 0 c0.04 0 0.04 -0.04 0.04 -0.08 z M100.96000000000001 30.96 l0 0.04 l0.04 -0.04 l-0.04 0 l0 0 z M99.56000000000002 39.32 c0 0.04 0 0.04 0.04 0.04 l0.04 -0.04 c-0.04 0 -0.04 0 -0.04 -0.04 c-0.04 0 -0.04 0 -0.04 0.04 z M101.76000000000002 27.119999999999997 l-0.04 0 c0.04 0 0.04 0 0.04 0.04 c0.04 0 0.04 0 0.04 -0.04 l-0.04 0 z M101.12000000000002 27.64 l0 -0.04 l0 0.04 l0 0.04 l0 -0.04 z M98.72000000000001 29.4 l0.04 0 l0 0.12 z M99.64000000000001 39.64 l0 -0.08 l-0.04 0.04 z M99.92000000000002 40.32 l0 -0.04 l-0.08 0.08 c0.08 0 0.08 -0.04 0.08 -0.04 l0 0 z M99.80000000000001 33.84 l-0.04 0 l0 0.04 c0.04 0 0.04 0 0.04 -0.04 z M98.92000000000002 36.72 l0.08 0 l-0.08 0 z M103.36000000000001 37.12 l-0.08 -0.28 c0.28 -0.52 0.28 -1.12 0.48 -1.68 c0.36 -0.24 0.32 -0.8 0.44 -1.16 c0.24 -0.48 0.72 -0.96 0.88 -1.44 l0 0.08 l0.2 -0.28 c0 -0.44 0.6 -0.72 0.6 -0.88 c0 -0.36 -1.08 -1.4 -1.24 -1.8 c-0.16 -0.44 -0.28 -0.96 -0.48 -1.4 c0 -0.04 0.04 -0.04 0.04 -0.08 c0 -0.24 -0.12 -0.44 -0.12 -0.68 c0 -0.64 0.64 -1.2 1.48 -1.2 c0.24 0 0.48 0.08 0.72 0.12 c0.04 0 0.08 -0.04 0.16 -0.04 c1.48 0 2.24 1.44 2.64 1.44 c0.48 0 0.92 -0.08 1.48 -0.08 c0.32 0 1 0.16 1 0.56 c0 1.2 -1.4 1.36 -1.4 1.68 c0.04 0.12 0.04 0.2 0.04 0.32 l0 0.16 c0.6 0.4 0.88 1.24 0.88 1.88 l0 0.2 l0.16 -0.16 c0.28 0 0.28 1.04 0.28 1.24 l0 0.08 c-0.56 2.84 -2.52 5.88 -5.12 5.88 c-0.64 0 -1.68 0 -2.12 -0.48 c-0.44 -0.44 -0.96 -1 -0.96 -1.64 c0 -0.12 0 -0.24 0.04 -0.36 z M109.56000000000002 32.72 l-0.08 -0.12 l-0.04 0.04 c-0.12 -0.44 -0.32 -0.88 -0.48 -1.32 l-0.28 -0.64 l-0.08 -0.08 l0.04 -0.04 c-0.16 0 -1.12 1.92 -1.44 2.2 l-0.08 -0.2 l-0.28 0.48 s-0.04 0.2 -0.08 0.2 l0 -0.04 l-0.08 0.12 l0.04 0.04 c0 0.12 -0.24 0.16 -0.32 0.28 c0 0.04 0.04 0.12 0.04 0.2 c0 0.48 -0.52 1.48 -0.84 1.96 l-0.28 0.6 c0 0.16 0.08 0.32 0.08 0.48 c0 0.36 -0.32 0.48 -0.32 0.56 l0.2 0.2 c0 0.12 -0.08 0.28 -0.16 0.36 c0 0.32 0.04 0.64 0.48 0.64 c0.24 0 1.64 -0.8 1.84 -0.96 c1.12 -1.08 2.04 -2.6 2.04 -4.08 c0 -0.24 0.28 -0.52 0.28 -0.76 c0 -0.12 -0.04 -0.24 -0.04 -0.32 c-0.04 0.04 -0.08 0.16 -0.16 0.2 z M106.00000000000001 27.119999999999997 c-0.56 0 -0.84 1.28 -0.84 1.64 c0 0.8 0.4 1.88 0.84 2.32 c0.64 -0.32 0.84 -1.6 1.12 -1.6 c0.12 -0.08 0.48 -0.64 0.48 -0.8 c0 -0.64 -1.32 -1.56 -1.6 -1.56 z M108.68 36.44 l0.04 0.04 l-0.12 0.08 l0.08 0.04 c0.6 0 0.72 -0.68 0.8 -0.68 l0 0.04 c0 -0.2 0.72 -0.84 0.8 -1.48 c0.04 -0.32 0.04 -0.68 0.28 -0.96 l-0.12 -0.04 c0 0.2 -0.44 0.56 -0.56 0.72 c-0.44 0.52 -0.6 1.56 -1.2 2.24 z M103.76000000000002 36.44 l0 0.24 l0.04 0.04 c0.44 -1.16 0.92 -2.8 1.64 -3.8 c-1 1.4 -1.2 2.84 -1.68 3.52 z M105.00000000000001 34.64 l0.04 0 c-0.36 0 -0.44 0.88 -0.64 1.12 l0.04 0.04 c0.2 -0.36 0.4 -0.76 0.56 -1.16 z M109.08000000000001 30.8 l0 0.08 c0 0.08 0 0.24 0.08 0.24 c0 -0.8 -0.24 -0.64 -0.28 -0.76 l-0.04 0.04 c0.04 0.16 0.12 0.32 0.24 0.4 z M109.44000000000001 31.759999999999998 c0 0 -0.04 0.08 -0.04 0.12 c0 0.16 0.08 0.28 0.12 0.44 c-0.04 0.04 -0.04 0.04 -0.04 0.08 l0.04 0 l0.16 -0.04 c-0.16 -0.36 -0.16 -0.68 -0.36 -0.92 c0 0.12 0 0.2 0.12 0.32 z M104.40000000000002 36.28 l-0.04 -0.16 c-0.16 0.12 -0.24 0.44 -0.24 0.6 l0.04 0.08 c0.04 -0.16 0.12 -0.36 0.24 -0.52 z M105.32000000000001 33.68 l0.04 0.08 c0.12 0 0.36 -0.56 0.4 -0.68 c-0.12 0.12 -0.44 0.56 -0.44 0.6 z M109.92000000000002 29.439999999999998 l0.08 -0.12 l-0.04 -0.16 c-0.08 0 -0.12 0.04 -0.12 0.12 s0 0.16 0.04 0.16 l0.04 0 z M106.24000000000001 31.84 l-0.04 -0.04 c-0.16 0.28 -0.28 0.52 -0.44 0.76 c0.28 -0.28 0.28 -0.4 0.48 -0.72 z M105.20000000000002 34.08 l0.08 -0.08 l0 -0.08 c0 0.2 -0.2 0.32 -0.28 0.48 c0.12 0 0.16 -0.24 0.2 -0.32 z M104.12000000000002 36.96 l-0.08 0.08 l0.04 0.16 c0.04 -0.08 0.04 -0.16 0.04 -0.24 z M106.92000000000002 30.8 l0.08 -0.08 l-0.08 -0.12 l0 0.2 z M106.44000000000001 31.52 l0 0.08 c0.04 -0.04 0.04 -0.12 0.12 -0.16 l-0.08 0 s-0.04 0.04 -0.04 0.08 z M106.20000000000002 32.480000000000004 l-0.04 0.08 l0.04 0.04 l0.08 -0.08 z M107.12000000000002 27.6 l-0.04 0 c0 0.04 0.08 0.12 0.12 0.12 c-0.04 -0.04 -0.08 -0.12 -0.08 -0.12 z M106.04000000000002 32.88 l0.08 -0.04 c0 -0.04 0 -0.12 -0.08 -0.12 l-0.08 0.04 z M110.52000000000001 31.72 l0.04 0.04 l0 -0.16 z M109.64000000000001 32.72 l0.04 0 l-0.04 0.12 l-0.08 -0.08 z M105.84000000000002 32.76 l0.08 -0.04 l-0.04 0 z M109.48000000000002 29.48 l0 -0.04 l0 0.12 l0 -0.08 z M107.56000000000002 28.08 c0 0.04 0 0.04 0.04 0.08 l0.04 -0.04 c0 -0.04 -0.04 -0.04 -0.08 -0.04 z M109.16000000000001 31.28 c0.08 0.04 0.08 0.04 0.12 0.04 l0 -0.04 l-0.12 0 z M109.56000000000002 32.72 c-0.04 0.04 -0.04 0.08 -0.04 0.12 l0.04 0.04 l0 -0.16 z M105.96000000000001 27.2 l0 0.04 c0 -0.04 0 -0.04 0.04 -0.04 l-0.04 0 z M127.28000000000002 32.24 l-0.04 -0.16 c0 -0.24 0.8 -2.08 0.92 -2.36 l-0.04 -0.04 l-0.08 0.04 l-0.04 -0.04 c0.12 -0.04 0.12 -0.16 0.2 -0.32 l0.16 0.08 l0.04 -0.28 l0.08 0.04 c0 -0.12 0 -0.2 0.04 -0.32 l0.08 0.08 l-0.08 -0.2 l0.12 0 l0.12 -0.08 c0 -0.08 -0.04 -0.12 -0.04 -0.2 c0 -0.2 0.08 -0.36 0.2 -0.52 l0 -0.16 c0 -0.12 -0.08 -0.2 -0.2 -0.24 l0.04 -0.16 l-0.12 -0.08 l0 0.04 l-0.04 -0.04 l0.16 -0.2 c-0.04 -0.12 -0.04 -0.24 -0.04 -0.36 l0.04 -0.12 l0 -0.16 c0 -0.12 0 -0.24 0.08 -0.32 l0 0.24 c0.04 -0.16 0.08 -0.32 0.08 -0.48 c0 -0.08 -0.04 -0.12 -0.04 -0.24 l0.04 0 c0 -0.32 -0.04 -0.64 -0.16 -0.92 l0 0.04 c0 0.16 0.04 0.32 0.04 0.48 l-0.04 0 l0.12 0.72 c-0.08 0.04 0 0.12 -0.12 0.12 l-0.12 -0.32 c0 0.12 -0.04 0.2 -0.04 0.36 c0 -0.44 -0.08 -0.8 -0.16 -1.2 l-0.04 0.04 l0 -0.08 c0 -0.12 0 -0.6 -0.24 -0.6 c-0.04 0 -0.08 0.04 -0.12 0.08 l0.12 0 l-0.04 0.28 l0.08 0.04 l-0.08 -0.04 c-0.04 -0.12 -0.08 -0.16 -0.16 -0.24 c-0.44 0.12 -0.92 0.16 -1.32 0.4 l0 -0.08 c-0.12 0 -0.2 0.12 -0.32 0.12 c0.08 -0.08 0.12 -0.16 0.28 -0.24 l-0.04 0 c-0.12 0.08 -0.64 0.44 -0.72 0.44 s-0.12 -0.08 -0.16 -0.16 c0.16 0 0.64 -0.52 0.76 -0.68 l0 0 c-0.16 0.04 -0.28 0.16 -0.44 0.24 c0 -0.12 0.24 -0.08 0.24 -0.24 l-0.28 0 c0.12 -0.08 0.2 -0.16 0.32 -0.16 l-0.36 0 c0 -0.24 1.68 -0.32 1.8 -0.4 l-0.04 -0.08 l0 0.08 l-0.12 -0.08 c0.04 -0.08 0.44 -0.08 0.52 -0.08 l0.04 0.04 c0.16 -0.04 0.28 -0.04 0.44 -0.04 c0.88 0 1.72 0.56 1.72 1.4 c0 0.12 -0.08 0.2 -0.08 0.28 c0.16 0.24 0.16 0.56 0.16 0.84 l0.04 0.08 c-0.04 0.08 -0.08 0.2 -0.08 0.32 c0 0.2 0.16 0.48 0.2 0.68 l-0.16 0.12 l0.04 0.12 l-0.08 0.08 l0.04 0 c0 0.16 -0.04 0.28 -0.04 0.4 l0 0.16 c0 0.2 -0.08 0.32 -0.12 0.52 l0.04 0.04 c0 0.32 -0.16 0.32 -0.16 0.44 c0.04 0.08 0.04 0.16 0.04 0.28 l-0.16 0.08 c0 0.04 0.08 0.08 0.08 0.12 c0 0.56 -0.24 0.92 -0.52 1.4 l0.08 0.08 c-0.2 0 0.04 1.12 -0.6 1.36 c-0.08 0.2 -0.12 0.4 -0.24 0.56 l0.04 0.04 c0 0.24 -0.16 0.44 -0.36 0.56 l0.12 -0.08 c0 0.28 -0.2 0.56 -0.4 0.76 l0.04 0 l-0.56 1.04 l0 -0.04 c-0.12 0.44 -0.36 0.88 -0.64 1.2 l0 0 c-0.24 0.08 -0.28 0.36 -0.28 0.56 l0 -0.04 c-0.04 0.08 -0.12 0.16 -0.2 0.2 l-0.08 -0.04 c0 0.44 -0.28 0.64 -0.52 0.92 l0.08 0.04 c-0.2 0.16 -0.84 1.08 -0.96 1.12 l-0.12 0.16 l0.04 0 c0 0.2 -0.76 0.88 -0.76 0.96 l0.04 0 c-0.6 0.32 -1.48 1.76 -1.64 1.76 c-1.16 0.64 -1.24 1.32 -2.84 1.32 c-0.28 0 -0.56 -0.04 -0.88 -0.04 c-0.6 0 -1.64 -1.24 -1.64 -1.76 l0.08 0.04 l0 -0.16 c-0.24 -0.36 -0.12 -0.84 -0.28 -1.08 l0.04 -0.12 c-0.04 -0.12 -0.04 -0.28 -0.04 -0.44 c0 -0.52 0.16 -1.12 0.16 -1.68 l-0.04 -0.08 l0.08 -0.16 l-0.04 -0.08 c0 -0.04 0.48 -2.16 0.48 -2.16 l0.12 -0.2 l-0.04 -0.08 c0 -0.12 0.08 -0.24 0.08 -0.36 l0 -0.08 l0.08 -0.12 l-0.04 -0.12 l0.2 -0.48 l-0.08 -0.04 c0.12 -0.28 0.48 -1.2 0.48 -1.44 c0 -0.12 0 -0.24 -0.08 -0.28 c-0.48 0.52 -0.84 1.12 -1.36 1.6 l0.04 0.04 c-0.88 0.92 -1.72 2.48 -3.2 2.48 l-0.24 -0.12 c-0.08 0 -0.12 0.12 -0.2 0.12 c-1.12 -0.64 -1.24 -1.24 -1.24 -2.36 c0 -0.12 0.04 -0.2 0.04 -0.32 c0 0 -0.04 -0.04 -0.04 -0.08 l0.08 -0.08 l-0.04 -0.36 c0.44 -0.4 0.68 -2.68 1 -3.52 c0 -0.44 0.4 -0.88 0.4 -1.32 c0.44 -0.32 0.44 -1.32 0.68 -1.4 l-0.04 -0.04 c0.04 -0.24 0.28 -0.64 0.28 -0.88 l-0.04 -0.04 c0 -0.32 0.32 -0.8 0.48 -1.08 c0 -0.16 -0.24 -0.12 -0.24 -0.24 c0.08 0 0.08 0.04 0.16 0.04 c0.24 0 0.28 -0.16 0.44 -0.16 c0 0 0.04 0.04 0.16 0.04 l0 -0.04 c0.04 0.04 0.08 0.04 0.12 0.04 c0.12 0 0.16 -0.16 0.32 -0.24 c0 0.12 0.2 0.12 0.28 0.16 l-0.12 0.08 l0.08 0 c0.12 0 0.04 -0.16 0.28 -0.16 c0.04 0.04 0.12 0.12 0.12 0.16 l0.16 0 l0.28 0.32 c0 0.48 -0.28 0.88 -0.52 1.28 l0 0.12 c-0.28 0.12 -0.52 1.64 -0.72 1.96 c0 0.16 -0.04 0.28 -0.12 0.36 l0.04 0.08 l-0.12 0.2 l0.04 0.08 c-0.08 0.08 -0.08 0.16 -0.08 0.24 l0 0.16 l-0.12 0.16 l0.08 0 l-0.16 0.08 c0 0.04 0.04 0.08 0.04 0.08 c0 0.92 -0.88 1.92 -0.88 2.92 c-0.28 0.64 -0.4 1.44 -0.4 2.16 c0 0.04 0 0.16 0.16 0.16 c0 -0.24 0.72 -0.88 0.92 -1.08 c0 -0.16 1.84 -2.2 2.12 -2.84 l0.32 -0.24 c0.12 -0.4 0.84 -1.4 1.2 -1.68 l-0.04 -0.04 c0 -0.2 0.16 -0.44 0.44 -0.48 l-0.04 0 c0.28 -0.52 0.56 -1.16 1.04 -1.6 c0 -0.6 0.68 -0.96 0.68 -1.08 c0.24 -0.2 0.24 -0.52 0.48 -0.72 l-0.08 -0.16 c0.08 0 0.16 0.04 0.24 0.04 c0.28 0 0.44 -0.2 0.68 -0.2 l0.16 0.08 c0.12 -0.04 0.28 -0.04 0.36 -0.04 c0 0.16 0.2 0.28 0.36 0.32 l-0.04 0.08 l0.08 0.24 c0 0.84 -1.08 2.24 -1.08 2.52 l0.12 0.16 l-0.16 0.08 c0 0.76 -1.12 2.08 -1.16 3.04 l0.04 0.04 c-0.28 0.32 -0.36 1.16 -0.48 1.32 l0.04 0.08 c-0.52 2.48 -1.4 4.88 -1.4 7.44 c0 0.68 0.08 1.88 0.84 1.88 l0.04 0.04 c0.44 0 0.96 -0.72 1.28 -0.92 l0.04 0 l0.12 -0.16 l0.08 0.04 l0.24 -0.2 l0 -0.04 c-0.16 0.04 -0.24 0.08 -0.32 0.16 c0.32 -0.16 0.48 -0.6 0.68 -0.76 c0 0.16 -0.12 0.32 -0.2 0.4 c0.12 0 0.4 -0.52 0.48 -0.6 l-0.12 0 l0.16 -0.12 c0.2 -0.24 0.88 -1.6 1.24 -1.6 l0.04 0 c0 -0.16 0.16 -0.64 0.32 -0.8 l0.08 0.08 l0.08 -0.12 l0.08 -0.04 l-0.04 -0.04 c0.68 -0.56 0.68 -1.32 1.2 -1.92 c0.72 -0.8 0.88 -1.8 1.44 -2.64 l0.04 0.04 l0 -0.08 l-0.08 0.04 l0.16 -0.2 l-0.08 -0.08 l0.24 -0.4 l0.04 0.08 c0.08 0 0.08 -0.08 0.12 -0.16 z M118.84000000000002 29.36 l0.04 0.04 c0.16 0 0.32 -0.36 0.36 -0.48 l-0.04 -0.04 c0 0.12 -0.28 0.16 -0.28 0.32 l0.12 0.04 c-0.16 0 -0.16 0 -0.2 0.12 z M118.28000000000002 34.480000000000004 l0 -0.08 c-0.16 0 -0.16 0.16 -0.16 0.24 l0 0.16 c0.12 0 0.16 -0.28 0.16 -0.32 z M118.44000000000003 33.36 l0.04 0.08 c0.04 -0.16 0.16 -0.32 0.2 -0.48 l-0.12 -0.04 c-0.04 0.16 -0.04 0.32 -0.12 0.44 z M118.68000000000002 29.84 l-0.12 -0.04 c-0.04 0.08 -0.16 0.2 -0.2 0.28 l0.04 0.04 c0.12 -0.12 0.24 -0.16 0.28 -0.28 z M120.04000000000002 27.6 c0 0.08 -0.04 0.24 -0.12 0.32 l0.04 0 l0.16 -0.16 c0 -0.04 -0.04 -0.12 -0.08 -0.16 z M129.00000000000003 26.759999999999998 l-0.04 -0.04 c0 -0.08 0 -0.16 -0.08 -0.2 l0 0.16 l0.08 0.12 z M118.88000000000002 32.2 l0.08 -0.24 l-0.04 -0.04 l-0.12 0.28 l0.08 0.04 l0 -0.04 z M119.80000000000001 28 l-0.12 0.12 l0 0.08 l0.24 -0.12 z M118.24000000000002 34.32 l0.12 -0.16 l-0.08 -0.04 l-0.08 0.12 z M118.36000000000001 33.88 l0.08 -0.36 c-0.08 0.12 -0.08 0.24 -0.08 0.36 z M128.84000000000003 26.8 l-0.08 0.12 l0.12 0.16 c-0.04 -0.12 -0.04 -0.16 -0.04 -0.28 z M125.24000000000002 24.84 l0 -0.04 c0.08 -0.08 0.16 -0.08 0.2 -0.2 c-0.04 0.08 -0.08 0.24 -0.2 0.24 z M127.12000000000002 32.12 l0.12 0.12 c-0.08 0 -0.12 -0.04 -0.12 -0.12 z M118.68000000000002 29.72 l0.04 0 l0.08 -0.16 c-0.08 0.04 -0.08 0.12 -0.12 0.16 z M128.20000000000002 29.68 l0.16 0.04 l-0.04 -0.12 z M128.56000000000003 26.64 l0.04 -0.12 l0.04 0.08 l-0.08 0.04 l0 0 z M128.56000000000003 26.759999999999998 l0.04 0.12 l-0.04 0.08 l0 -0.2 z M118.72000000000001 32.8 l0 -0.08 l0 -0.08 l-0.08 0.08 z M128.8 27.68 l0.08 0.08 l-0.08 0.04 l0 -0.12 z M128.40000000000003 25.28 l0 -0.04 l0 -0.04 c0.04 0 0.04 0 0.04 0.08 l-0.04 0 z M118.36000000000001 30.2 l0 -0.04 l-0.12 0.12 c0.12 0 0.08 -0.08 0.12 -0.08 z M128.56000000000003 26.36 c0 -0.04 0 -0.16 0.04 -0.2 c0 0.04 0 0.16 -0.04 0.2 z M125.92000000000002 24.439999999999998 c0 0.04 0 0.08 -0.04 0.08 c0 -0.04 0.04 -0.08 0.04 -0.08 z M122.04000000000002 28.439999999999998 l0 -0.04 l-0.04 0.04 l0.04 0 z M125.52000000000002 24.560000000000002 c0.04 0 0.08 -0.08 0.16 -0.16 z M118.72000000000001 32.44 l0.12 -0.04 l-0.04 -0.04 z M118.84000000000002 29.48 l0.04 -0.08 l-0.08 0.04 z M128.56000000000003 26.439999999999998 l0 0.04 l0 -0.12 l0 0.08 z M128.48000000000002 24.84 l-0.04 -0.04 l0 0.08 z M122.84000000000002 39.2 l0 -0.04 c0 -0.04 0 -0.04 0.04 -0.04 c0 0.04 0 0.04 -0.04 0.08 z M122.08000000000001 40.4 l0.12 -0.08 c0 0.08 -0.04 0.08 -0.12 0.08 z M125.96000000000002 24.240000000000002 c-0.04 0 -0.04 0 -0.08 0.04 c0.04 -0.04 0.04 -0.04 0.08 -0.04 z M122.76000000000002 39.28 l0.08 -0.04 c0 0.04 -0.08 0.04 -0.08 0.04 z M117.88000000000002 36 c0.04 -0.04 0.04 -0.08 0.04 -0.08 c-0.04 0 -0.04 0.04 -0.04 0.08 z M128.20000000000002 24.84 l0 0.04 l-0.04 0 c0 -0.04 0 -0.04 0.04 -0.04 z M118.00000000000001 35.44 l0 -0.04 l0 0.04 z M128.40000000000003 25.52 l0 -0.08 l0.04 0.04 c-0.04 0 -0.04 0 -0.04 0.04 z M125.72000000000003 24.4 l0.04 0 l-0.04 0 z M118.04000000000002 30.64 l-0.04 0 l0.04 0 z M117.92000000000002 35.76 l-0.04 0 l0.04 0 z M125.44000000000003 24.6 c0.04 0 0.04 -0.04 0.08 -0.04 c-0.04 0 -0.04 0.04 -0.08 0.04 z M132.88000000000002 30.64 c0 0.64 0.2 1.96 0.8 2.52 c0.24 0.28 1.16 1.16 1.6 1.16 c0.2 0 7.88 -5.08 8.84 -5.76 c-0.16 0.16 -0.6 0.6 -0.68 0.8 l0.04 0 l-0.88 0.72 c0.36 -0.28 1.04 -0.76 1.08 -0.76 c-0.08 1 -7.4 5.04 -7.72 5.84 c0.24 0.28 0.68 1.08 0.8 1.4 c0.28 0.36 0.76 0.84 0.76 1.28 c0 0.16 -0.04 0.24 -0.08 0.32 l0.08 0.24 c-0.04 0.36 -0.24 0.84 -0.64 1 l0.04 0 c-0.32 0.2 -0.56 0.52 -0.76 0.84 l0.04 0 c-0.6 0.2 -1.44 1.12 -1.76 1.2 l0.04 -0.04 c-0.72 0.6 -2 1.24 -3 1.24 c-0.4 0 -0.96 -0.08 -1.2 -0.36 l0.04 0 c-0.16 -0.2 -0.48 -0.48 -0.48 -0.76 c0 -1.64 1 -1.76 1.2 -2.4 c0.08 -0.4 0.44 -0.68 0.68 -1.04 c0.32 -0.48 0.44 -0.88 0.84 -1.32 c0.32 -0.36 1.36 -1.2 1.36 -1.68 c0 -0.32 -0.52 -0.56 -0.72 -0.76 c-0.4 -0.4 -1.28 -1.92 -1.52 -1.92 l-0.04 0 c-0.08 -0.6 -0.48 -1.12 -0.48 -2.08 c0 -0.52 0.04 -1.6 0.4 -2 l-0.04 -0.12 c0.16 -1.56 0.6 -1.08 0.68 -1.6 c0.04 -0.44 1.72 -2.52 2.2 -2.52 l0.16 0.08 c1.12 0 0.68 -0.56 2.04 -0.56 c1.04 0 1.88 0.04 2.64 0.68 c0.88 0.72 0.48 1 1.04 1.56 l-0.08 0.16 l0.12 0.2 c-0.24 1.08 -0.48 2.96 -1.04 3.48 c-0.6 0.6 -1.04 0.68 -1.76 0.96 c-0.28 0 -0.88 -0.4 -0.88 -0.68 c0 -0.08 0.08 -0.16 0.12 -0.2 l-0.04 -0.08 c0.08 -0.48 0.28 -0.64 0.48 -1 l0 -0.12 c0.08 -0.6 0.64 -1.24 0.68 -1.84 l-0.04 0 c0.08 -0.2 0.12 -0.4 0.12 -0.64 c0 -0.56 -0.36 -0.8 -0.44 -1.2 l0 0 c-0.12 -0.12 -0.36 -0.48 -0.52 -0.48 c-0.24 0 -1.08 0.8 -1.4 0.96 c-0.36 0.12 -1.68 2.44 -2.16 2.88 l0.04 0.04 c-0.16 0.28 -0.6 1.72 -0.6 2.36 z M135.60000000000002 37.52 c-0.08 -0.24 -0.76 -1.48 -1 -1.48 c-0.28 0 -0.64 1.16 -1.04 1.48 l0.12 -0.04 c-0.04 0.28 -0.2 1.56 -0.72 1.56 l0.08 0.04 c-0.08 0.48 -0.2 0.12 -0.2 0.92 c0 0.12 -0.24 0.32 -0.24 0.44 c0 0.04 0.08 0.08 0.16 0.08 c0.56 -0.52 1.36 -1.04 1.84 -1.64 l-0.04 0.08 s0.88 -0.8 1.04 -1.44 z M134.12000000000003 35.28 c-0.24 0.08 -0.4 0.68 -0.44 0.88 c-0.2 0.2 -0.48 0.4 -0.72 0.56 c-0.08 0.76 -1.04 1.28 -1.04 2.08 l0.08 0.16 c0.36 -0.04 0.96 -1.48 1.04 -1.48 l0 0.04 c0.28 -1.24 1.16 -0.88 1.32 -1.6 c-0.12 -0.2 0 -0.48 -0.24 -0.64 z M132.68000000000004 41.52 l0.12 0.04 l1.04 -0.72 l0 0.04 c0.12 -0.2 0.36 -0.12 0.52 -0.44 l-0.04 -0.04 c-0.36 0 -1.36 0.88 -1.64 1.12 z M132.28000000000003 41 l0.12 0.04 c0.12 0 0.2 -0.16 0.2 -0.24 c-0.16 0 -0.24 0.04 -0.32 0.2 z M136.92000000000002 33.76 c0.4 -0.24 0.76 -0.44 1.16 -0.68 c-0.4 0.24 -0.76 0.44 -1.16 0.68 z M132.68000000000004 41.52 c-0.04 0 -0.08 0 -0.12 0.04 c0.04 0 0.08 0 0.12 -0.04 z M134.60000000000002 38.88 l0.08 -0.08 c0 0.04 -0.04 0.08 -0.08 0.08 z M150.48000000000002 25.68 c0.36 -0.68 0.6 -0.48 0.92 -0.92 c0 -0.32 0.4 -0.36 0.44 -0.52 c-0.04 0 -0.08 0.04 -0.08 0.08 c0 -0.76 0.92 -1.28 0.92 -2 c0 -0.2 -0.12 -0.36 -0.12 -0.56 l0 -0.2 c0.24 0 0.6 0.24 0.84 0.36 l0.04 -0.04 c0.12 0.28 0.48 0.2 0.68 0.4 l0.12 -0.04 l0.28 0.64 c0 2.8 -3.08 5.32 -4.92 6.56 l0.04 -0.04 c-0.44 0.12 -1.4 0.96 -1.72 1.28 c-0.68 0.76 -3.08 2.4 -3.08 2.6 l0.96 0.48 l-0.12 0.08 c0.12 0 0.32 0.08 0.44 0.16 l0.12 -0.08 c0.88 0.32 2 0.56 2.76 1.12 c0.44 0.32 1.04 0.72 1.44 0.72 c0.56 0.32 2.64 1.56 2.64 2.28 c0 0.08 -0.24 0.12 -0.28 0.12 c-0.12 0 -0.2 -0.08 -0.24 -0.16 l-0.32 0.2 c-0.08 -0.12 -0.28 -0.28 -0.44 -0.28 l-0.12 0.08 c-0.6 -0.2 -1.8 -1.04 -2.28 -1.04 c-0.76 -0.6 -5.36 -1.68 -5.84 -2.32 l-0.08 -0.08 c-0.2 0 -1 2.64 -1.24 3.56 c-0.12 0.44 -0.2 1 -0.48 1.4 l-0.08 -0.04 c0 0.56 -0.48 1.2 -0.56 1.2 l-0.04 0.04 l0 -0.28 l-0.04 -0.12 c-0.16 0.12 -0.16 0.32 -0.16 0.44 c0 0 -0.04 -0.04 -0.08 -0.04 c-0.16 0 -0.32 1.04 -0.36 1.2 c0 0.04 0.04 0.08 0.04 0.12 s-0.04 0.12 -0.08 0.12 c-0.04 -0.08 -0.08 -0.28 -0.2 -0.32 l0 0.16 c-0.12 0 -0.16 -0.12 -0.16 -0.2 c0 -0.12 0.04 -0.24 0.04 -0.32 c0 -0.12 -0.04 -0.28 -0.04 -0.44 c0.16 -0.16 0.16 -0.32 0.16 -0.48 l0 -0.24 c0.36 -1 0.12 -2.12 0.64 -3.08 c0.32 -1.92 0.92 -3.88 1.44 -5.8 l0.16 0.08 l0.08 -0.08 c-0.08 -0.04 -0.08 -0.16 -0.08 -0.24 c0 -0.24 0.28 -0.72 0.28 -0.8 l-0.04 -0.12 c0.16 -0.28 0.28 -0.32 0.28 -0.64 l-0.08 0.2 c-0.04 -0.04 -0.04 -0.12 -0.04 -0.16 c0 -0.16 0.2 -0.32 0.2 -0.52 l-0.04 -0.08 l0.16 -0.04 l-0.08 -0.2 c0.04 -0.08 0.4 -1.56 0.6 -2.2 l0.08 -0.04 c0 -0.04 -0.04 -0.08 -0.04 -0.12 c0 -1.24 0.88 -2.36 0.96 -3.44 c0.16 -0.08 0.24 -0.88 0.36 -1.04 c-0.12 0.08 -0.68 0.92 -0.76 0.92 c-0.16 -0.08 -0.28 -0.32 -0.28 -0.48 c0 -1 1.16 -2.04 1.16 -2.48 c0.16 -0.16 0.12 -0.6 0.48 -0.6 l0.16 0.12 l0.16 -0.04 c0.2 0 0.52 0.12 0.64 0.32 l0.12 -0.16 c0.32 0.64 0.48 0.72 0.48 1.52 c0 0.52 -0.16 1.04 -0.32 1.52 l-0.24 0.68 c0 0.8 -0.84 2.44 -0.68 2.36 c0 0.08 0.04 0.16 0.04 0.24 c0 0.8 -1.12 3.68 -1.32 4.84 l0.04 0.04 c0.44 0 0.48 -0.56 0.92 -0.56 l0 0.04 l0 0 c0 -0.12 3.56 -3.24 4.84 -4.6 z M146.72000000000003 29.36 l0.08 0.04 c0.2 0 0.32 -0.2 0.32 -0.36 l0 -0.04 c-0.16 0.08 -0.24 0.2 -0.4 0.36 z M146.16000000000003 29.92 l-0.04 0 c-0.12 0 -0.16 0.08 -0.16 0.2 l0.04 0 z M150.84 25.560000000000002 l0.08 -0.16 l0 0 l0 -0.04 l-0.16 0.16 z M148.24 28.240000000000002 l0.08 -0.16 c-0.04 0 -0.12 0.08 -0.2 0.16 l0.12 0 z M147.4 28.84 l0.08 0.04 l0.04 -0.08 c0 -0.04 -0.04 -0.08 -0.08 -0.08 s-0.04 0.08 -0.04 0.12 z M152.00000000000003 24.08 c0.12 0 0.16 -0.04 0.16 -0.12 l-0.04 0 c-0.12 0 -0.12 0.04 -0.12 0.12 z M151.84 24.68 l-0.04 -0.12 l-0.04 0 l0 0.08 s0.08 0 0.08 0.04 z M151.52 24.68 l-0.08 0.12 l0.2 -0.08 c0 -0.04 -0.08 -0.04 -0.12 -0.04 z M150.56 25.72 l-0.08 -0.04 l0.08 0.16 l0 -0.12 z M150.44000000000003 26 l-0.04 0 l-0.08 0.08 c0.04 0 0.08 -0.08 0.12 -0.08 z M152.24 23.68 l0 0.04 l0.08 -0.04 l-0.04 -0.08 s-0.04 0.04 -0.04 0.08 z M141.08 38.8 l0 -0.08 l0 -0.08 l0 0.16 z M145.32000000000002 33.72 c0 -0.04 0 -0.04 0.08 -0.04 c-0.04 0 -0.08 0 -0.08 -0.04 l-0.04 0.04 s0.04 0 0.04 0.04 z M144.60000000000002 31 l0 0.04 l0.04 0 l0 -0.04 l0 -0.04 c-0.04 0 -0.04 0 -0.04 0.04 z M147.88000000000002 28.48 c-0.08 0 -0.08 0 -0.08 0.04 l0.04 0.04 c0 -0.04 0 -0.04 0.04 -0.08 z M151.44000000000003 24.8 c0 0 -0.04 0.04 -0.04 0.08 l0.04 -0.04 l0 -0.04 z M142.12 32.32 l0 0.08 l0 -0.16 l0 0.08 z M158.44 32.76 l-0.04 -0.04 c0.28 -0.16 0.56 -0.48 0.68 -0.8 l-0.04 -0.04 c0.04 -0.36 0.52 -0.8 0.8 -1.04 l-0.04 -0.08 l0.04 -0.08 l0.08 0.08 l0.2 -0.28 l-0.08 -0.08 l0.12 -0.12 c0 -0.56 1.28 -1.88 1.76 -2.2 l0 0 c0.16 -0.04 0.32 -0.12 0.48 -0.12 l0.04 0.04 c0.16 0 0.24 -0.2 0.44 -0.2 l0 0.04 c0.08 -0.08 0.24 -0.16 0.44 -0.16 l0 0.08 l0.16 -0.08 l0.2 0.04 l0.12 -0.04 c0.04 0.24 0.2 0.2 0.2 0.44 c0 0.2 -0.12 0.48 -0.16 0.68 l0 0.04 c-0.36 0.8 -0.84 1.92 -0.96 2.76 c-0.08 0.8 -0.16 1.72 -0.44 2.44 c0 0.04 0 0.12 -0.08 0.12 c-0.12 0 -0.12 0.44 -0.12 0.52 c0 0.52 -0.16 0.96 -0.16 1.48 c0 0.24 0.08 1.52 0.52 1.52 l0.28 -0.2 c0.12 0 0.04 0.2 0.2 0.2 c0 0.12 -0.12 0.04 -0.16 0.2 c0.04 0.04 0.12 0.08 0.12 0.16 l-0.08 0.2 l0 0.08 c-0.08 0 -0.16 0.12 -0.16 0.16 l0.04 0.04 c0 0.12 -0.16 0.12 -0.24 0.16 l-0.04 -0.08 l-0.2 0.12 l-0.12 0 c-0.12 0 -0.24 0.08 -0.36 0.08 c-0.16 -0.08 -0.24 -0.16 -0.36 -0.16 l-0.04 0.04 c-0.24 -0.04 -0.64 -0.36 -0.8 -0.48 c-0.48 -0.24 -0.52 -0.68 -0.52 -1.16 c0 -0.24 -0.2 -0.48 -0.2 -0.72 c0 -0.4 0.2 -0.88 0.2 -1.36 l-0.04 -0.04 l0.04 -0.12 c0 -0.6 0.16 -0.96 0.16 -1.48 c0 -0.04 -0.08 -0.16 -0.08 -0.2 c-0.04 0.4 -0.8 0.88 -0.92 1.24 c-0.32 0.44 -0.64 0.84 -0.92 1.24 c-1.12 0.8 -0.88 0.92 -1.68 1.64 c-0.28 0.28 -0.64 0.48 -0.96 0.72 l0 -0.04 c-0.68 0 -1.2 0.36 -1.88 0.36 c-0.04 0 -0.24 -0.12 -0.32 -0.12 l-0.16 0.04 c-0.56 -0.64 -0.84 -1.28 -0.84 -2.08 c0 -1 0.32 -2 0.68 -2.96 c0.32 -0.88 0.76 -1.72 1.28 -2.52 c0.16 -0.28 0.36 -0.56 0.52 -0.8 l0.2 -0.32 s0.16 -0.04 0.16 -0.08 l0.52 -1.08 c0 -0.04 0.32 -0.32 0.32 -0.36 c0 -0.16 2.04 -1.64 2.36 -1.84 c0.4 0 0.8 -0.16 1.12 -0.32 c0 0 0.44 -0.2 0.52 -0.2 c0.04 0 0 0 0 0.04 c0.12 -0.04 0.48 -0.12 0.8 -0.12 c0.08 0 0.16 0 0.2 0.04 l-0.04 -0.08 c0.72 0 1.44 0.68 1.88 1.16 c0.04 0.08 0.08 0.12 0.2 0.12 l-0.04 0.04 l0.08 0.12 l0 0.04 l-0.2 -0.04 l-0.08 0.08 c0 0.2 0.28 0.24 0.28 0.36 l-0.2 -0.12 l-0.24 0.08 c0 0.16 0.24 0.2 0.44 0.24 c-0.88 -0.2 -0.96 -0.12 -1.72 -0.6 c-0.28 -0.16 -0.56 -0.6 -0.88 -0.6 c-0.04 0 -0.76 0.2 -0.84 0.24 c0.12 -0.12 0.28 -0.16 0.44 -0.24 c-0.2 0 -1.2 0.48 -1.2 0.68 l0.2 0 c-0.04 0.2 -0.48 0.72 -0.72 0.76 l0.08 0.08 l-0.08 0.04 l0.12 0.12 c-0.28 0.2 -0.68 0.64 -0.68 0.96 c-0.2 0.16 -0.92 1.44 -0.96 1.68 c-0.36 0.2 -0.76 1.08 -0.88 1.48 l0 -0.04 c-0.64 0.72 -1.68 3.52 -1.76 4.56 c0.08 0.08 -0.04 0.16 0.12 0.16 c0.32 -0.36 1 -1 1.52 -1.12 l0.16 0 l0.08 -0.16 l-0.04 0 c0.04 -0.12 0.32 -0.36 0.36 -0.48 l0 0.04 c0 -0.32 0.24 -0.68 0.6 -0.8 l-0.04 0 c0.04 -0.2 0.52 -0.24 0.52 -0.6 l-0.04 -0.04 l0.2 -0.12 l-0.04 0 c0.04 -0.28 0.28 -0.56 0.56 -0.72 z M158.4 27.759999999999998 c0.16 -0.2 0.52 -0.92 0.88 -0.96 c-0.2 0.36 -0.68 0.64 -0.88 1 l0 -0.04 z M159.36 27.04 l-0.04 -0.04 c0.04 -0.04 0.12 -0.16 0.16 -0.2 l0.08 0.08 c0 0.08 -0.12 0.12 -0.2 0.16 z M159.88 26.64 c-0.08 0.04 -0.16 0.12 -0.28 0.16 l0 0 c0.08 -0.08 0.2 -0.16 0.28 -0.16 z M154.72 30.560000000000002 c0.04 -0.04 0.08 -0.08 0.08 -0.12 c-0.08 0 -0.08 0.08 -0.08 0.12 z M163.36 27.560000000000002 l-0.08 0 c-0.16 0 -0.28 -0.04 -0.32 -0.08 c0.12 0 0.28 0.08 0.4 0.08 z M156.44 35.44 l0.08 0 l0 -0.04 z M159.84 31.2 l0.08 0 l0.04 -0.04 c-0.04 0 -0.08 0 -0.12 0.04 z M156.44 35.44 l-0.04 0.08 l0 0.04 c0.04 -0.04 0.04 -0.08 0.04 -0.12 z M160.44 34.64 l0 0.08 l0.04 -0.04 z M159.92000000000002 30.6 l-0.04 0 l0.04 -0.04 c0.04 0 0.04 0 0.04 -0.04 c0 0.04 0 0.04 -0.04 0.08 z M159.84 30.64 c0 -0.04 0 -0.04 0.04 -0.04 c0 0.04 0 0.04 -0.04 0.04 z M163.32 27.6 l0 0 l0 0 l0 0 z M156.08 35.72 l0.12 -0.04 c-0.04 0.04 -0.04 0.04 -0.12 0.04 z M162.8 27.439999999999998 l0 0.04 l0 -0.04 z"></path></g><g id="SvgjsG7792" featureKey="sloganFeature-0" transform="matrix(0.7712154425667926,0,0,0.7712154425667926,19.120814866186407,82.09249019536068)" fill="#6a95a7"><path d="M10.24 17.22 l0 2.78 l-9.1 0 l0 -12.24 l3 0 l0 9.46 l6.1 0 z M19.768000000000004 7.76 l3 0 l0 12.24 l-3 0 l0 -12.24 z M33.056000000000004 7.76 l9.1 0 l0 2.78 l-6.1 0 l0 1.96 l4.9 0 l0 2.78 l-4.9 0 l0 4.72 l-3 0 l0 -12.24 z M51.88400000000001 7.76 l9.1 0 l0 2.78 l-6.1 0 l0 1.96 l4.9 0 l0 2.78 l-4.9 0 l0 1.94 l6.1 0 l0 2.78 l-9.1 0 l0 -12.24 z M90.94 15 l0.8 1.04 c0.42 -0.64 0.58 -1.4 0.58 -2.16 c0 -2.16 -1.2 -3.44 -3.3 -3.44 c-2.2 0 -3.3 1.4 -3.3 3.44 c0 2.12 1.22 3.44 3.3 3.44 l-1.74 -2.32 l3.66 0 z M93.52 18.42 l2.72 3.58 l-3.74 0 l-1.6 -2.14 c-0.56 0.16 -1.18 0.24 -1.88 0.24 c-3.76 0 -6.3 -2.56 -6.3 -6.22 c0 -3.78 2.66 -6.22 6.3 -6.22 c3.78 0 6.3 2.54 6.3 6.22 c0 1.76 -0.52 3.3 -1.8 4.54 z M112.648 7.76 l3 0 l0 7.24 c0 3.18 -2.28 5.1 -5.3 5.1 c-3.1 0 -5.3 -2.04 -5.3 -5.1 l0 -7.24 l3 0 l0 7.24 c0 1.44 0.86 2.32 2.3 2.32 c1.48 0 2.3 -0.86 2.3 -2.32 l0 -7.24 z M132.996 17.52 l-4.5 0 l-0.88 2.48 l-3.26 0 l4.9 -12.24 l3 0 l4.9 12.24 l-3.28 0 z M129.476 14.74 l2.54 0 l-1.26 -3.56 z M155.50400000000002 17.22 l0 2.78 l-9.1 0 l0 -12.24 l3 0 l0 9.46 l6.1 0 z M165.032 7.76 l3 0 l0 12.24 l-3 0 l0 -12.24 z M177.54 7.76 l10.2 0 l0 2.78 l-3.6 0 l0 9.46 l-3 0 l0 -9.46 l-3.6 0 l0 -2.78 z M200.58800000000002 20 l0 -4.54 c-2.42 -0.54 -3.82 -2.54 -3.82 -4.94 l0 -2.76 l3 0 l0 2.76 c0 1.44 0.86 2.32 2.3 2.32 c1.48 0 2.3 -0.86 2.3 -2.32 l0 -2.76 l3 0 l0 2.76 c0 2.44 -1.42 4.38 -3.78 4.94 l0 4.54 l-3 0 z M232.524 13.26 l0 6.74 l-3 0 l0 -12.24 l3 0 l3.82 6.76 l3.82 -6.76 l3 0 l0 12.24 l-3 0 l0 -6.74 l-2.32 3.98 l-3 0 z M261.072 17.52 l-4.5 0 l-0.88 2.48 l-3.26 0 l4.9 -12.24 l3 0 l4.9 12.24 l-3.28 0 z M257.552 14.74 l2.54 0 l-1.26 -3.56 z M282.28000000000003 7.76 l3 0 l0 12.24 l-3 0 l-4.8 -7.16 l0 7.16 l-3 0 l0 -12.24 l3 0 l4.8 7.16 l0 -7.16 z M303.18800000000005 17.52 l-4.5 0 l-0.88 2.48 l-3.26 0 l4.9 -12.24 l3 0 l4.9 12.24 l-3.28 0 z M299.668 14.74 l2.54 0 l-1.26 -3.56 z M326.876 12.5 l0 6.8 c-1.42 0.54 -3.2 0.84 -4.72 0.84 c-3.9 0 -6.52 -2.34 -6.52 -6.2 c0 -4.22 3.14 -6.28 6.98 -6.28 c0.26 0 0.54 0 0.86 0.02 c0.3 0.02 0.62 0.06 0.96 0.08 c0.62 0.08 1.24 0.16 1.84 0.34 l0 3.06 c-0.22 -0.1 -0.46 -0.18 -0.74 -0.26 c-0.3 -0.06 -0.6 -0.12 -0.92 -0.18 c-0.64 -0.12 -1.32 -0.16 -1.98 -0.16 c-2.54 0 -4 0.78 -4 3.38 c0 2.54 1.34 3.3 3.62 3.3 c0.24 0 0.5 -0.02 0.78 -0.04 c0.26 -0.02 0.54 -0.04 0.84 -0.06 l0 -1.86 l-2.6 0 l0 -2.78 l5.6 0 z M336.804 7.76 l9.1 0 l0 2.78 l-6.1 0 l0 1.96 l4.9 0 l0 2.78 l-4.9 0 l0 1.94 l6.1 0 l0 2.78 l-9.1 0 l0 -12.24 z M358.63199999999995 13.26 l0 6.74 l-3 0 l0 -12.24 l3 0 l3.82 6.76 l3.82 -6.76 l3 0 l0 12.24 l-3 0 l0 -6.74 l-2.32 3.98 l-3 0 z M379.59999999999997 7.76 l9.1 0 l0 2.78 l-6.1 0 l0 1.96 l4.9 0 l0 2.78 l-4.9 0 l0 1.94 l6.1 0 l0 2.78 l-9.1 0 l0 -12.24 z M406.228 7.76 l3 0 l0 12.24 l-3 0 l-4.8 -7.16 l0 7.16 l-3 0 l0 -12.24 l3 0 l4.8 7.16 l0 -7.16 z M418.836 7.76 l10.2 0 l0 2.78 l-3.6 0 l0 9.46 l-3 0 l0 -9.46 l-3.6 0 l0 -2.78 z"></path></g>
			</g>
		</svg>
	